<svg xmlns="http://www.w3.org/2000/svg" width="266" height="282" viewBox="0 0 266 282">
  <g id="logo-/-logo-on-dark" fill="none" fill-rule="evenodd" stroke="none" stroke-width="1">
    <g id="Glanzstück" fill="#FFF" transform="translate(8 234)">
      <path id="Fill-39" d="M15.1100456,35.1070654 C15.1148213,34.9316756 15.0756607,34.7851962 14.9920862,34.6653786 C14.7851398,34.8059153 14.4820429,35.0447474 14.0813628,35.3841235 C13.6806828,35.7226965 13.3769491,35.9623317 13.1706395,36.102226 C12.9942575,36.1851025 12.6997569,36.3592074 12.2871376,36.6255044 C11.8738815,36.889874 11.5575719,37.0851799 11.3366169,37.2111008 C11.115821,37.3362186 10.8292798,37.4955471 10.4757199,37.6895681 C10.1227967,37.8835891 9.78515566,38.0348869 9.46422956,38.1426585 C9.14187075,38.249627 8.80757273,38.3427827 8.45735575,38.4197166 C7.96116197,38.5507771 7.48295661,38.5515802 7.02401318,38.4222864 C4.52075775,37.8529119 2.53279884,36.4809524 1.06029565,34.3059258 C0.311468078,33.1442092 -0.0408183624,31.7910414 0.00375470726,30.2430496 C0.00837120377,30.0684628 0.011714184,29.6823482 0.0142612165,29.0826178 C0.0169674386,28.484333 0.0236533991,28.0092386 0.0335231502,27.659262 C0.096562206,26.4339424 0.256388499,25.401359 0.51236527,24.561351 C0.547546158,24.3292646 0.607242233,24.0099652 0.691453497,23.6031315 C0.775028003,23.1961371 0.849369515,22.8917748 0.913045329,22.6889201 C0.977357901,22.4573156 1.1340004,22.0384358 1.38329121,21.4314779 C1.85290034,20.1894545 2.37631553,19.0797766 2.95465111,18.1027654 C3.25918069,17.5566799 3.81952785,16.7113716 4.6341007,15.5663587 C5.14557668,14.8790941 5.77357939,14.1677374 6.51922317,13.4289158 C7.79862946,12.2101814 8.58661766,11.4888667 8.882551,11.2633655 C9.03043808,11.1509361 9.30504003,10.9172436 9.7055609,10.5632517 C10.1068777,10.2105447 10.4107705,9.94826303 10.6183537,9.77897652 C11.7107123,9.02200562 12.3600464,8.58834947 12.566356,8.47736562 C12.7136063,8.39432849 12.9125933,8.27595643 13.16268,8.12257064 C13.4127668,7.96870302 13.5832588,7.86430431 13.6714498,7.80808963 C14.2598143,7.47481685 14.9476723,7.21719297 15.7348645,7.035218 C15.8510729,7.01032293 15.9531134,6.99763447 16.0400309,7.0003649 C16.9932578,7.08661429 17.7818827,7.34359571 18.4067017,7.77002425 C19.515616,8.50274253 20.4323885,9.31849793 21.1606806,10.216648 C21.4671205,10.605493 21.6614909,10.9172436 21.7423592,11.1535059 C21.8219539,11.3897682 21.8318237,11.5503816 21.7714909,11.6367916 C21.711158,11.7223985 21.5779164,11.8060781 21.373517,11.8876697 C21.2859628,11.9144921 21.1686401,11.9546455 21.0226633,12.0087722 C20.875413,12.0630595 20.7600006,12.0884364 20.6730831,12.0865091 C20.3507243,12.19412 20.1079602,12.0991975 19.9428807,11.8027052 C19.9150225,11.7437601 19.847367,11.5805769 19.7392773,11.3141193 C19.6854712,11.138087 19.6310284,11.0336883 19.5740385,11.0030112 C19.5170487,10.9728158 19.4016363,10.9835769 19.2265278,11.0364187 C18.556499,11.1348747 17.8688002,11.420606 17.1604068,11.8969853 C16.2164129,12.4825817 15.5970064,12.889576 15.301073,13.1144348 C14.3850965,13.7601006 13.749771,14.2233096 13.3941416,14.5050255 C13.2747495,14.6187398 13.0665295,14.8101909 12.7699594,15.0785759 C12.472275,15.3482458 12.235401,15.5523854 12.0569495,15.6929221 C11.8202347,15.8615662 11.4792507,16.1741198 11.0316097,16.6278526 C10.2249963,17.5097807 9.64268103,18.136173 9.28450458,18.5049413 C8.68420084,19.218386 8.12831099,19.9618653 7.61428798,20.73554 C7.15932429,21.4528394 6.88599586,21.8978991 6.79382512,22.0705585 C6.33870224,22.8174108 5.84601063,23.854652 5.31527272,25.1830854 C5.09909333,25.6729562 4.79265348,26.7746034 4.39658992,28.4864209 C4.29518618,29.0096994 4.20237868,29.6937518 4.12071445,30.538257 C4.11482444,30.743039 4.09890549,31.0488469 4.07295759,31.4571262 C4.04637294,31.8652448 4.03124993,32.1718558 4.02520073,32.3759954 C3.98349307,32.8128638 4.03045399,33.1943206 4.16656104,33.5189202 C4.19505596,33.5203658 4.27401397,33.8006361 4.40327588,34.3587676 C4.42842782,34.4766579 4.46758845,34.6231373 4.52075775,34.8004545 C4.54527294,34.9477369 4.64540316,34.9946361 4.8211484,34.9403487 C5.54944053,34.7577313 6.41574997,34.3441518 7.41864404,33.7010558 C7.62415773,33.5905538 7.97119092,33.3597524 8.45926603,33.0083303 C8.94686357,32.6577113 9.33751469,32.3979994 9.63265209,32.2314433 L10.3875289,31.6397436 C11.9270509,30.4292005 13.0717828,29.3951715 13.8199736,28.5399052 C14.5681644,27.6852814 15.0185116,27.1144614 15.1718111,26.8268028 C15.2023755,26.7691426 15.2401034,26.7122854 15.2851541,26.6547859 C15.3303639,26.5971257 15.3821005,26.540911 15.4417966,26.4834114 C15.5014927,26.4271967 15.5465433,26.3703395 15.5771077,26.3120369 C15.6977734,26.140823 15.657976,26.0076745 15.4583523,25.9145187 C14.6284973,25.5398077 13.9314063,25.1255858 13.3656467,24.6705681 C12.8568769,24.2468699 12.4901042,23.8854898 12.2672389,23.5870701 C12.2108858,23.4972873 12.1432302,23.3501654 12.062362,23.1432953 C11.980061,22.994728 12.0112621,22.8937021 12.1578757,22.8387724 C12.4509436,22.7016085 12.6266889,22.6333478 12.6851114,22.6347934 C13.9592645,22.6139136 14.7413626,22.6227474 15.0298141,22.6588854 C15.8669918,22.7424043 16.8127369,23.0764802 17.8680043,23.6612735 C17.9536483,23.6933962 18.1254138,23.7569991 18.3840968,23.8520822 C19.500493,24.293769 20.5245592,24.9368651 21.455818,25.7813703 C21.4836762,25.8115656 21.5678874,25.9018303 21.7084518,26.0518432 C22.0188714,26.3529933 22.0812737,26.7048972 21.8962955,27.1091611 C21.6183505,27.7141918 21.3523448,28.3934258 21.0995518,29.1455783 C20.7832422,30.0718357 20.5750223,30.7958809 20.4734594,31.3185168 C20.437005,31.5514062 20.3687127,31.9362359 20.266513,32.4730059 C20.1643133,33.0117032 20.0941107,33.4259251 20.0576563,33.7163141 C19.9481339,34.5020348 19.8492772,35.4342349 19.7610862,36.5124326 C19.6934307,37.8535544 19.7099864,38.8037432 19.8101166,39.3618747 C19.8825478,39.8612217 20.0662526,40.523752 20.36139,41.3502684 C20.5503479,41.8226324 20.3999138,42.0375331 19.9089733,41.9946494 C19.6781485,41.9578689 19.5051095,41.9244613 19.3903338,41.8923386 C17.7831563,41.3775727 16.5626501,40.5391708 15.726905,39.3753662 C15.6433305,39.2561911 15.5884101,39.137016 15.563099,39.0205712 C15.4855737,38.6961322 15.4204652,38.4391508 15.3680918,38.2476996 C15.3150817,38.055606 15.2639819,37.813401 15.2149515,37.5196391 C15.1651252,37.2265197 15.1293075,36.9480161 15.1087721,36.6844495 C15.0750239,35.807661 15.0756607,35.2816522 15.1100456,35.1070654"/>
      <path id="Fill-40" d="M65.8783664,30.7009038 C65.6428133,30.6655201 64.3433834,30.8144197 63.8431166,30.7996898 C63.3423638,30.7856004 59.7194799,31.1005309 59.6904813,31.0998905 C57.2016217,31.3680698 56.2600574,31.4534069 55.1360773,31.5962223 C53.8347033,31.7636943 55.3319395,29.8677067 55.5175955,29.5807949 C55.7955934,29.1525086 56.0096001,28.8523079 56.1622073,28.6822742 L56.2074063,28.6395256 C56.332959,28.3807926 56.5495577,28.0458487 56.8560683,27.6308512 C57.1619309,27.2185756 57.3772335,26.91101 57.5013282,26.7108762 C57.5952902,26.5387611 57.7950405,26.2385604 58.1021991,25.8102741 C59.4839268,23.8990763 60.2668897,22.8290809 60.4497916,22.6001279 C60.7556542,22.2019417 61.1924156,21.6249159 61.7600758,20.8690505 C62.32644,20.1131852 62.7178404,19.5928373 62.932657,19.3073665 C63.1769583,18.9937168 63.6440143,18.4034021 64.3318811,17.534181 C65.020396,16.6656003 65.5631076,15.9744182 65.9613122,15.4614352 C65.9862607,15.6088938 66.0039191,15.7549114 66.0147733,15.8996482 C66.0254656,16.0464663 66.0120193,16.2352325 65.9768645,16.4667473 C65.9404137,16.699543 65.906717,16.8442797 65.8756124,16.9003172 C65.7035647,18.7309811 65.6217529,20.0392157 65.628557,20.8250211 C65.6204569,21.1172165 65.6130047,21.3641015 65.6070106,21.5674375 C65.6008544,21.7709335 65.5948603,22.0037291 65.5867601,22.2659845 C65.579308,22.5274393 65.5867601,22.7616759 65.6104126,22.9651719 C65.6319591,23.2279076 65.6428133,23.6075214 65.6441094,24.1019319 C65.6441094,24.5974632 65.6556116,24.9617067 65.6784541,25.1953029 C65.7278652,25.5167979 65.7507077,25.9838301 65.7487636,26.5955991 C65.7447135,27.2065676 65.7406634,27.62893 65.7338593,27.8617256 C65.7920186,28.9117076 66.0834628,30.7362874 65.8783664,30.7009038 M71.9871939,36.2513346 C71.8912878,34.472065 71.8177382,33.4802019 71.7650871,33.273984 C71.714542,32.9531295 71.6706391,32.4641626 71.6307862,31.8077237 C71.5902853,31.1512849 71.5572366,30.7643062 71.5316401,30.6469477 C71.4229357,29.3046103 71.3568383,28.5308129 71.3344818,28.326036 C71.2858808,27.9464222 71.2426258,27.4134259 71.203583,26.7283278 C71.1643782,26.0432298 71.1475298,25.6275919 71.1515799,25.4820546 C71.0266752,23.6728451 70.9550697,22.5929231 70.9362773,22.2426089 C70.9011225,21.3980442 70.878118,20.6541869 70.8680738,20.0131183 C70.87747,19.6929042 70.9132728,19.2132235 70.9761301,18.5742363 C71.0388255,17.9357294 71.0718742,17.5721263 71.0739802,17.4847079 C71.1298714,16.5554466 71.2061751,15.450708 71.3027291,14.1719331 C71.4026853,12.7482613 71.3547323,11.3633354 71.158384,10.0177958 C71.0840244,9.52082353 70.9902244,9.21261747 70.8755259,9.09253719 C70.8180147,9.03313748 70.7323149,8.92842747 70.6195604,8.77968803 C70.50551,8.63078848 70.3921075,8.49677889 70.2780571,8.37605818 C70.1633586,8.25661833 70.0478501,8.16647806 69.9325037,8.10451664 C69.0367864,7.46745072 68.0161644,7.10448805 66.8699898,7.01242651 C66.604628,7.00506158 66.4568809,7.00105891 66.4277202,7.00041848 C66.0747146,6.99049184 65.7899125,7.15716327 65.5739619,7.50075298 C65.3254485,7.90102059 64.9879953,8.38662525 64.559334,8.95708664 C64.3143848,9.27057622 63.999126,9.69886256 63.6150157,10.2406648 C63.2309054,10.7835878 62.9473993,11.1825745 62.7632014,11.4393862 C62.6105941,11.6102204 62.3426403,11.9738235 61.9578821,12.5308359 C61.5731238,13.0878483 61.2734173,13.5087697 61.0594107,13.7936002 C60.7535481,14.1639277 60.3331491,14.6901996 59.7978896,15.3740168 C59.26182,16.0584744 58.9175626,16.4848394 58.7657654,16.6555135 C58.4592548,17.0551407 57.8165869,17.9104325 56.8351698,19.2218693 C55.823296,20.5621253 55.1490375,21.4601657 54.8114223,21.9164708 C54.658167,22.1166046 54.3895652,22.494137 54.0054549,23.0511494 C53.6200486,23.6081618 53.3203422,24.0438131 53.1056876,24.3581032 C52.799987,24.7282707 52.4084246,25.2772777 51.9305143,26.0064052 C51.451956,26.7356928 51.1366972,27.2139325 50.9827939,27.4427255 C50.8599952,27.6142001 50.6438826,27.935695 50.336076,28.4073704 C50.0276213,28.8796862 49.781214,29.2432893 49.5970161,29.500101 C49.3525528,29.7849314 48.9833469,30.3132846 48.4906943,31.0851607 C48.1828876,31.5140874 47.781119,32.1433081 47.2863603,32.9731429 C46.7903057,33.8044187 46.5114977,34.2620046 46.4507464,34.3473416 C46.2650904,34.6342535 45.9870924,35.0918394 45.6143224,35.7217005 C45.5752795,35.7950295 45.3470166,36.1331756 45.0602704,36.5942839 C45.0035692,36.4561115 44.9609623,36.3227423 44.8948649,36.1820082 C44.4216527,35.2072766 43.8842871,34.4494899 43.2808242,33.9084882 C43.1087765,33.7583078 42.9056241,33.6502356 42.671367,33.5849119 C41.97135,33.3614025 41.2369882,33.2680601 40.4700637,33.3040842 C39.9665568,33.348754 39.6135512,33.3533971 39.4089408,33.3180135 C39.1437411,33.3100081 38.5396301,33.3226566 37.5951498,33.3540376 C37.3589487,33.3767728 36.6352792,33.4288075 35.4251131,33.5107823 C34.3908829,33.5982008 33.7995701,33.6542383 33.651823,33.6788947 C33.2670647,33.7262864 32.6904943,33.8044187 31.9209777,33.9131313 C31.1514612,34.0224845 30.6046994,34.0878081 30.2800444,34.1071811 C30.2497497,34.1351998 30.1977466,34.1558536 30.123549,34.1678616 C30.0491894,34.1813106 29.982444,34.1933187 29.9236367,34.2066076 C29.8636954,34.219256 29.8048882,34.2246996 29.7462429,34.2232587 C29.6874356,34.2213374 29.6428847,34.2059671 29.6151821,34.175867 C29.5565368,34.1452866 29.5456826,34.0357733 29.5808374,33.8470071 C29.6151821,33.6595218 29.6260363,33.5428038 29.6132381,33.4981339 C29.5989817,33.4547449 29.609188,33.360762 29.6428847,33.2160253 C29.7083341,32.9845105 29.8609414,32.3040556 30.0998965,31.1753009 C30.2382475,30.451457 30.3414437,29.944398 30.4089992,29.6555649 C30.4752586,29.3947505 30.820164,28.1819397 31.4438774,26.0152111 C31.7077811,25.0331145 31.8548803,24.513407 31.886633,24.4554483 C31.981081,24.2540336 32.2402866,23.4166738 32.6670038,21.943689 C32.7972546,21.4821004 33.0004069,20.8469558 33.2745168,20.0392157 C33.5478167,19.231956 33.7172724,18.726338 33.7827218,18.5241228 C33.8488192,18.2633084 34.1702341,17.3553414 34.7453465,15.7989409 L35.6120651,13.3773218 C35.9373681,12.3100483 36.1048797,11.615504 36.1142759,11.2952899 C36.1507267,11.0344755 36.1844235,10.903668 36.2140701,10.9043085 C36.3423768,10.5307787 36.2492248,10.1926327 35.9339661,9.89243197 C35.8192676,9.77299212 35.7037591,9.66748158 35.5890606,9.57686099 C35.0139483,9.09445848 34.3767886,8.71228297 33.6780675,8.43001425 C33.1826609,8.21258889 32.8330573,8.08642454 32.6284469,8.05120099 C32.2167961,7.98107411 31.9514344,7.98843903 31.8320378,8.0718548 C31.7111832,8.155911 31.6308295,8.38742578 31.5909766,8.76431776 L31.5430236,8.89432467 C31.5579279,9.39001608 31.4059686,10.040531 31.0881178,10.8463497 C30.9922117,11.1065237 30.8242141,11.5895666 30.5818569,12.2953185 C30.3407957,13.0031517 30.1403974,13.5580827 29.981796,13.9604317 C29.7266405,14.5941354 29.2304238,15.963691 28.4920119,18.0678177 C28.4251045,18.3286321 28.2948537,18.7689265 28.0998015,19.3893413 C27.9053973,20.011197 27.7433938,20.4787096 27.6165451,20.7957215 C27.5523917,20.968477 27.0150261,22.7302949 26.0052584,26.0792539 C25.7454048,26.8576943 25.4672448,27.8410718 25.1675384,29.0258639 C25.0709843,29.314697 24.9528838,29.8137506 24.8151808,30.5228647 C24.6761818,31.2332597 24.5572713,31.7757023 24.4581251,32.1513135 C24.3837655,32.6729422 24.2596709,33.398067 24.0855171,34.3247665 C23.9107153,35.2519464 23.8054131,35.8457834 23.7689623,36.1072382 C23.7318635,36.3393935 23.5939985,36.524157 23.3543954,36.6629698 C23.0554989,36.8296412 22.9446886,37.0585943 23.0256903,37.3527109 C23.1087981,37.5294691 23.2060002,37.7209571 23.3179446,37.9284558 C23.6263992,38.4614522 24.0531164,38.9830809 24.5984201,39.4941426 C24.9136789,39.7937029 25.289041,40.0818956 25.7224003,40.3559988 C26.0410612,40.5681406 26.4081611,40.564138 26.8280741,40.3433504 C26.8570727,40.3439908 26.9016237,40.3239774 26.962375,40.2820294 C27.0224783,40.2399212 27.0670293,40.2192674 27.0966759,40.2207084 C27.6359855,39.9144236 27.9203016,39.7629623 27.9499483,39.7636028 C28.1876074,39.6829088 28.5756057,39.5335289 29.1123233,39.3161036 C29.6488788,39.0978777 30.0653898,38.9497787 30.3625042,38.871006 C32.1451905,38.3681098 33.5977138,38.0599037 34.721694,37.9463878 C35.9030234,37.8336725 36.8324374,37.7877218 37.510098,37.8070947 C37.6269025,37.8102968 37.7673595,37.8142995 37.930011,37.8191027 C38.0913665,37.8237458 38.2391137,37.8203836 38.3714705,37.8096564 C38.5051234,37.7982888 38.6522226,37.7957271 38.814226,37.8003702 C38.9755815,37.8043729 39.1160385,37.8083756 39.2334911,37.8117378 C39.5284994,37.791084 39.926056,37.7950867 40.4269707,37.8243863 C40.9264275,37.8530454 41.3098897,37.8564077 41.5763855,37.8343129 C41.8700978,37.8431188 42.2589062,37.8831456 42.7436206,37.9558341 C43.227525,38.0272419 43.4988808,38.0645468 43.5583361,38.0658277 C43.783683,38.0984895 43.9741991,38.154527 44.1374986,38.2265752 C43.8290439,38.8577171 43.6035351,39.4682053 43.6393379,39.8651106 C43.6723866,40.2407217 44.6795623,40.4240443 45.1419202,40.5921567 C45.3970757,40.6776539 45.966842,40.8337582 46.7289063,40.9311033 C47.9863774,41.0318106 48.0275263,41.095213 48.5013865,40.5769465 C49.0941572,39.928513 51.312957,36.0905871 52.2018701,35.912388 C52.3186746,35.9157502 52.5569818,35.8717208 52.9127414,35.7796592 C53.2689871,35.6875977 53.5356448,35.6296389 53.7132006,35.6062633 C53.8602998,35.610266 54.3780629,35.5515067 55.265032,35.4314264 C56.1534591,35.3107057 56.8405159,35.2359357 57.3279844,35.2059957 C57.8146429,35.1758956 58.3081055,35.1685307 58.8088583,35.1826201 C58.8973122,35.1853419 59.0228649,35.1813392 59.1848684,35.1712525 C59.3468719,35.1613258 59.7458865,35.1432337 59.9381846,35.1059288 C60.1306447,35.0671829 61.4414149,35.097283 61.8404295,35.0505318 C62.2392821,35.0024997 62.6152922,34.998497 62.9676498,35.0385237 C63.3206554,35.0772696 63.8256202,34.9751214 64.5931928,34.9683969 C64.9568906,34.979124 65.57866,34.9051546 66.1037133,34.9557484 C66.1152155,34.9531867 66.1267178,34.9517457 66.136924,34.9578298 C66.1584704,34.9603915 66.1821229,34.9597511 66.2030214,34.9624729 C66.2036694,34.9624729 66.1740228,34.9631133 66.1429181,34.9637538 C66.3752311,35.1339475 66.2334781,37.3860132 66.1962173,37.8557672 C66.1706207,38.178543 66.1456722,39.3620543 66.1463202,39.5368912 C66.1469682,39.810354 66.4494287,40.2447244 66.743789,40.2527298 C66.9495335,40.2580133 67.1419936,40.2639373 67.3180914,40.2693809 C68.6196274,40.1019089 69.8231513,39.7570384 70.9288251,39.2352495 C71.2278835,39.0692185 71.483687,38.9017466 71.6949396,38.7329937 C71.8447928,38.6202784 71.9223925,38.4921927 71.9264426,38.3466554 C71.9959421,36.950522 72.0161925,36.251975 71.9871939,36.2513346"/>
      <path id="Fill-41" d="M65.9966816,34.995219 C65.9858146,34.9973259 65.9755963,34.995219 65.9642426,35.004781 C65.9634316,35.004781 65.9999255,35.0039707 66.0357707,35.0033224 C66.0338243,35.0013776 66.0317158,34.9986224 66.0297694,34.9973259 C66.0189024,34.9958672 66.0073865,34.9966776 65.9966816,34.995219"/>
      <path id="Fill-42" d="M95.8585105,28.1451434 L95.8598095,28.1011013 C96.0567759,27.3975655 96.3178821,26.0148716 96.6432906,23.9556197 C96.8936798,22.3967574 97.1244211,21.0581055 97.3335659,19.9408016 C97.8174568,17.4711945 98.0983733,15.9272838 98.1763155,15.3084193 C98.4085182,13.3351389 98.5497883,12.068157 98.5952546,11.5074736 C98.6293543,11.3314678 98.6488398,11.1249087 98.6569588,10.8886091 C98.663454,10.6523095 98.6780681,10.4010584 98.7008013,10.1356682 C98.7235344,9.87076566 98.7365248,9.66436917 98.7413961,9.51599122 C98.7462675,9.31008229 98.7868624,9.17811855 98.8631808,9.12058756 C98.9378753,9.06370663 99.0791455,9.02372747 99.2869913,9 C99.4347566,9.00406292 99.6101265,9.02437754 99.8179722,9.05899364 C101.108889,9.30406916 102.305626,9.81128447 103.406559,10.5817772 C103.49262,10.6435336 103.60791,10.7504698 103.750804,10.901448 C103.92455,11.0254484 104.007363,11.2346077 103.999244,11.5299009 C104.008987,12.1806187 103.92455,13.0791747 103.744309,14.2270317 C103.741061,14.3455066 103.73619,14.5080235 103.731318,14.7145825 C103.724823,14.9217916 103.711833,15.1208748 103.690723,15.3118322 C103.669614,15.5040897 103.643633,15.6726197 103.611157,15.8196976 C103.471511,16.5550866 103.30426,17.7027811 103.112652,19.2635936 C102.963263,20.3531071 102.711575,21.9282211 102.357588,23.9861729 C102.287764,24.3396472 102.206575,24.8548258 102.114018,25.5313837 C102.019838,26.2098919 101.938648,26.7089813 101.872073,27.0319025 C101.620385,28.5920649 101.427153,29.6355861 101.294002,30.1637661 C101.225802,30.4575967 101.133246,30.8679519 101.014709,31.3975945 C100.896172,31.9264246 100.787378,32.4112126 100.685079,32.8506583 C100.584403,33.2922168 100.46749,33.702572 100.340834,34.0831866 C100.113503,34.7569818 99.954371,35.1949649 99.8585671,35.3995737 C99.7302873,35.7496352 99.7367825,36.0164879 99.8796764,36.1985069 C100.13786,36.5012759 100.111879,36.8844908 99.8033581,37.3491267 C99.494837,37.7830469 99.2658819,38.087116 99.1116214,38.2605216 C98.410142,39.0669306 97.6355918,39.7698162 96.7921926,40.3664159 C96.5208565,40.564849 96.2204544,40.7483306 95.8903369,40.9163731 C95.6202998,41.0564627 95.4004379,41.0205465 95.2286404,40.8086244 C95.2008735,40.7483306 95.1662867,40.6880368 95.1237433,40.6285556 C95.0810375,40.5676118 95.045314,40.5160939 95.0175471,40.4701016 C94.9891307,40.4254095 94.9532448,40.3792547 94.910539,40.3339125 C94.8673461,40.2885702 94.8314602,40.2351022 94.8043428,40.1761085 C94.545997,39.931033 93.9864373,39.354098 93.1258259,38.4427031 C93.1264754,38.4136125 93.098059,38.3830593 93.0399272,38.351206 C92.9532165,38.2902622 92.9106731,38.2299684 92.9119721,38.1704872 C92.8004174,37.9307748 92.5803932,37.6219926 92.2523866,37.2426781 C91.9235681,36.8641762 91.7165343,36.6143877 91.631285,36.4931501 C90.9518892,35.4686434 90.5980643,34.926812 90.5702974,34.8666807 C90.2333599,34.2653681 89.9222408,33.7540899 89.6400252,33.332196 C89.4126939,33.0003364 89.1881231,32.6096457 88.9648513,32.1599614 C88.8531342,31.9202489 88.6488608,31.5742504 88.3518687,31.1219658 C88.0548765,30.6703313 87.8437832,30.316857 87.7179391,30.062193 C87.5927445,29.807529 87.3876592,29.4392656 87.106905,28.9583781 C86.8255014,28.477653 86.6291845,28.1019139 86.5195784,27.8329484 C86.435141,27.6528796 86.3369014,27.4659852 86.2253467,27.2696647 C86.1123306,27.0746444 85.999964,26.8721483 85.8877598,26.6621765 C85.7753931,26.4523671 85.6779654,26.2714858 85.5933657,26.1211576 C85.481811,25.9111858 85.3350199,25.6038663 85.1549411,25.1995242 C84.9737256,24.7959947 84.8423605,24.4891627 84.7605213,24.2793534 C84.3979278,23.5303129 84.0229936,22.6770991 83.6381542,21.7197119 C83.4702538,21.3594119 83.1800816,20.6862668 82.7645525,19.6989765 C82.7077196,19.6089421 82.6502373,19.5629498 82.5914559,19.5608371 C82.5318626,19.559537 82.4709703,19.6320195 82.4081295,19.7776347 C81.8242128,21.6228518 81.4168026,22.9270501 81.1888218,23.6887669 C80.9913683,24.3640247 80.7348087,25.3383136 80.4181687,26.6155341 C80.1002296,27.8925921 79.8925463,28.7220785 79.7930076,29.1026931 C79.5250815,30.1597031 79.2545572,31.37793 78.9791616,32.7593238 C78.7740763,33.7297123 78.6949975,34.4223595 78.7424123,34.8374277 C78.7403013,34.8970714 78.7206534,35.0439867 78.6847676,35.2783361 C78.5136196,36.1018093 78.4257723,36.616988 78.4196018,36.8228969 C78.4189523,36.8526375 78.4168414,36.9116311 78.4148928,37.0003654 C78.2802802,37.558286 78.1888606,38.1467597 78.1422576,38.7662742 C78.1300792,39.1793923 78.0704859,39.4441323 77.9649392,39.5585442 C77.857444,39.6737687 77.5955259,39.7847678 77.1801591,39.8917039 C75.7512195,40.2635426 74.3005211,40.3548772 72.8296876,40.1653824 C72.6828965,40.1307663 72.5008691,40.0738854 72.2810072,39.9947397 C72.0617949,39.9141313 71.9703753,39.7413758 72.0083721,39.4759856 C72.0427965,39.2708893 72.1098593,38.7480724 72.207287,37.9083474 C72.3053642,37.068785 72.3899639,36.4274932 72.4623851,35.9865848 C72.709202,34.5748003 72.9162358,33.5319293 73.0841363,32.856834 C73.184162,32.4458287 73.2525238,32.122745 73.2890592,31.8864454 C73.4379612,30.7975821 73.7274838,29.4602303 74.15714,27.8769905 C74.2566786,27.4957258 74.3906417,26.9378052 74.5596788,26.2037162 C74.7275792,25.4697898 74.8615422,24.9260082 74.9609185,24.5744841 C75.5211278,22.5214078 75.9155476,21.1136863 76.1449898,20.3511569 C76.2409561,20.088367 76.3870976,19.6420955 76.581953,19.0116924 C76.7768084,18.3819393 76.9244114,17.8903257 77.0231381,17.5389641 C77.3404277,16.7501069 77.5495725,16.165046 77.6489487,15.7831313 C77.9094054,14.9331678 78.1713236,14.0401373 78.4358398,13.1007895 C78.5670424,12.6025126 78.4751356,12.2158848 78.1584956,11.9396061 C78.0725968,11.8494092 77.9865357,11.7431231 77.9020984,11.6226981 C77.7613153,11.3524324 77.8282157,11.103294 78.1002014,10.8743077 C78.2815793,10.7314553 78.4623076,10.6183435 78.6415746,10.5351348 C78.879623,10.4532263 79.0325844,10.2804708 79.0996472,10.0163808 C79.1009462,9.9872903 79.1158851,9.95819977 79.1462501,9.92910924 C79.148361,9.8701156 79.1496601,9.82542344 79.1503096,9.79568285 C79.2464382,9.53289298 79.346464,9.35818729 79.4528226,9.27221584 C79.5590188,9.18689446 79.7301668,9.13277632 79.9675656,9.11034899 C80.2335432,9.08808417 80.5142974,9.09621002 80.8086914,9.13407646 C81.3377238,9.20850921 81.938528,9.35883736 82.6117534,9.58506092 C82.9634674,9.6838712 83.1976186,9.75034063 83.3146942,9.78284401 C83.6685191,9.82201059 83.9588537,9.99346594 84.1868345,10.2954224 C84.5271819,10.7782602 84.8688284,11.2170558 85.2117739,11.6105093 C85.3532064,11.8224314 85.5589413,12.1312135 85.827517,12.5375058 C86.0967422,12.9444482 86.2875381,13.2234897 86.4018532,13.374468 C86.8558663,14.0076339 87.5859246,15.3449856 88.5907289,17.3831103 C88.7287515,17.7130197 88.9370844,18.1849688 89.2150781,18.7978201 C89.4919351,19.4126217 89.700268,19.8689692 89.8395896,20.1683253 C90.0087891,20.4689816 90.2320609,20.9043645 90.5121655,21.4731737 C90.7901592,22.0432831 90.986476,22.4185346 91.0994922,22.5992534 C91.1257976,22.6879877 91.2238749,22.9060854 91.3909634,23.2499712 C91.5582142,23.5953197 91.6840584,23.8574595 91.7671967,24.0375282 C91.82338,24.1275626 92.2746326,24.8800159 93.120305,26.2931005 C93.4281766,26.8633724 93.610204,27.2093709 93.6663873,27.3284959 C93.6926928,27.4185302 93.7495256,27.5160404 93.8355867,27.622489 C93.920836,27.728125 93.9768569,27.8106836 94.0052733,27.8709773 C94.059508,28.0198428 94.2144181,28.2982343 94.4688668,28.7038766 C94.7225035,29.1108189 94.8902416,29.43309 94.9722432,29.6715023 C94.9991982,29.7324462 95.0716195,29.807529 95.187396,29.8996761 C95.2455279,29.9315294 95.3036598,29.947131 95.363253,29.9490812 C95.4220344,29.9511939 95.4681502,29.8936629 95.5012756,29.7758382 C95.5696374,29.4527545 95.688012,28.909623 95.8585105,28.1451434"/>
      <path id="Fill-43" d="M121.244607,14.7120503 L121.338961,14.578648 C121.27979,14.5164153 121.132661,14.4811556 120.894376,14.4744936 C120.384222,14.4900924 119.595803,14.4670191 118.522721,14.4054364 C117.924609,14.3877252 117.134591,14.3951997 116.147867,14.4270472 C114.772531,14.508291 113.798601,14.6017213 113.229276,14.7053883 C113.078948,14.7317113 112.802282,14.7770453 112.397677,14.8407404 C111.993072,14.9050854 111.684421,14.9639059 111.474922,15.0188267 C111.233439,15.1020203 110.907196,15.0329631 110.494595,14.8082429 C110.376253,14.7445478 110.275501,14.6654164 110.189143,14.5713361 C109.290377,13.6058354 108.72425,12.4975083 108.490763,11.2463546 C108.335637,10.4230305 108.692265,9.93231825 109.562245,9.7758428 C111.393362,9.43526902 112.399276,9.25247059 112.57839,9.22679757 C113.566713,9.13531711 114.403109,9.06837226 115.090777,9.02775039 C116.136672,8.99801518 116.987462,8.99184065 117.644744,9.01085169 C119.015283,9.05082361 119.776515,9.0730844 119.926843,9.07714659 C120.105956,9.08250867 120.425802,9.10021981 120.887979,9.12865512 C121.350156,9.15774038 121.698788,9.17398913 121.938672,9.18146356 C123.04054,9.27489386 123.635453,9.33777652 123.72501,9.36962407 C123.753796,9.40147162 123.902524,9.4211326 124.169595,9.42860703 C124.438266,9.43591897 124.588593,9.44079359 124.617379,9.44144354 C124.796493,9.44680563 125.077957,9.49360203 125.46497,9.58020786 C125.850384,9.66746364 126.14784,9.71361009 126.35574,9.71962213 C126.595624,9.72709655 126.921867,9.7745429 127.337666,9.86244863 C127.753465,9.95051685 128.03333,10.0120996 128.183658,10.0460595 C128.362771,10.0514216 128.508301,10.1468017 128.623446,10.3317125 C128.823349,10.6107035 128.994466,10.9342161 129.133599,11.3025753 C129.515815,12.5265935 129.786084,13.5509147 129.942809,14.3742388 C130.014774,14.9829169 130.017972,15.332265 129.957202,15.4216331 C129.893233,15.5103513 129.605372,15.6991618 129.09042,15.9875771 C128.604255,16.2766423 128.254024,16.508187 128.039727,16.6849734 C127.948571,16.7730416 127.675103,16.962502 127.217724,17.2523797 C126.945855,17.3965061 126.573235,17.6355252 126.101463,17.9699245 C125.628091,18.3057861 125.346627,18.502071 125.255471,18.560404 C125.073159,18.6754452 124.836473,18.8588935 124.545414,19.1073369 C124.255954,19.3572427 124.033661,19.5244423 123.881734,19.6116981 C123.45474,19.9334233 123.120502,20.1812167 122.87582,20.3558908 C122.81345,20.4452589 122.675916,20.5771987 122.463219,20.7531727 C122.247323,20.9293091 122.079404,21.0761978 121.957863,21.1933513 C121.650811,21.4274958 121.171042,21.8377767 120.51216,22.425494 C119.853278,23.0132112 119.355918,23.4538773 119.020081,23.7463548 C118.409175,24.2141562 117.504012,25.0524292 116.30619,26.2608487 C115.47779,27.0861226 115.045999,27.5141147 115.017213,27.54255 C114.831702,27.7503715 114.601413,27.9934528 114.324747,28.2730938 C114.046481,28.5540346 113.809795,28.8037779 113.608293,29.0258983 C113.408389,29.2480187 113.184497,29.4990619 112.938216,29.7801652 C112.690336,30.0611061 112.47444,30.3345726 112.28733,30.6026769 C112.194575,30.7516779 112.009064,30.9811103 111.730799,31.2912989 C111.454132,31.601975 111.25263,31.8463562 111.12789,32.0244425 C111.095905,32.1144605 111.094306,32.1760433 111.123092,32.2065909 C113.662666,32.1294094 115.038003,32.0934996 115.245902,32.0996742 C116.232626,32.0678266 117.393666,32.146958 118.73222,32.3372309 C119.41509,32.4184746 120.110754,32.6202841 120.819212,32.9446091 C120.90717,32.9777566 121.078287,33.0427516 121.329366,33.141544 C121.578846,33.2390365 121.778749,33.3209302 121.925878,33.3859251 C122.309693,33.5789603 122.557573,33.7230867 122.675916,33.8171669 C122.909403,34.0061399 123.064529,34.2992673 123.142891,34.6960618 C123.216455,35.2735423 123.22765,35.9262546 123.178074,36.6525737 C123.131696,37.1977192 123.066128,37.6811195 122.979769,38.1027745 C122.893411,38.5260544 122.784664,38.9314607 122.653527,39.3222431 C122.557573,39.5610997 122.432833,39.7547848 122.279308,39.9023235 C122.125782,40.0493747 121.991446,40.0303636 121.877901,39.8454529 L121.8795,39.8001188 C121.71478,39.2795089 121.21742,38.9010756 120.38902,38.6648187 C120.299463,38.6620565 120.158731,38.6126603 119.966824,38.5158177 C119.776515,38.4196251 119.637383,38.3546301 119.547826,38.3214827 C118.215669,37.9492238 116.757173,37.7548888 115.175536,37.73929 C113.534728,37.7521265 112.130606,37.7867363 110.963169,37.843607 C109.648604,37.9268006 108.839394,38.024943 108.53714,38.1373844 C108.358027,38.1624074 108.012593,38.2124536 107.50244,38.2883352 L107.094636,38.5042811 C106.640456,38.7039782 106.330205,38.5726883 106.165485,38.1130112 C106.136699,38.0215308 106.125504,37.960598 106.125504,37.9295629 C106.109512,37.414315 105.824849,36.9356269 105.269917,36.4949608 C104.921285,36.1813599 104.588646,35.7772536 104.275197,35.2823167 C103.987336,34.8801601 103.924966,34.4232453 104.089687,33.9120596 C104.190438,33.4902421 104.574253,32.5465148 105.244329,31.0800652 C105.592961,30.361708 106.02955,29.6771482 106.555696,29.0252484 C106.618066,28.9059825 106.712421,28.7490196 106.837161,28.5553345 C106.9619,28.3624619 107.070648,28.2209353 107.163403,28.1328671 C107.443268,27.7469593 107.737526,27.3760003 108.044578,27.0211277 C108.228489,26.8445037 108.437988,26.607597 108.669876,26.3117073 C108.903363,26.0145176 109.125656,25.7408887 109.343151,25.4890331 C109.557448,25.2386399 109.75895,25.0083951 109.944461,24.8012236 C110.035617,24.7125054 110.305886,24.42539 110.752071,23.9379275 C111.198256,23.450465 111.559681,23.1045292 111.833149,22.9001199 C111.925905,22.8120517 112.017061,22.7233335 112.109816,22.6354278 C112.295326,22.3983585 112.511222,22.1539774 112.757503,21.9035841 C113.002185,21.6530284 113.286848,21.3808619 113.609892,21.0862721 C113.929737,20.7924947 114.168022,20.5724866 114.321548,20.424948 C115.119563,19.6597944 115.823224,19.0429919 116.434129,18.5751904 C116.769967,18.3117981 117.304109,17.86577 118.038155,17.2353185 C118.773799,16.6043796 119.338327,16.1425901 119.734936,15.8515751 C120.742449,15.092596 121.244607,14.7120503 121.244607,14.7120503"/>
      <path id="Fill-44" d="M134.641925,34.5936798 C134.610834,34.5936798 134.461926,34.7242287 134.195201,34.9858057 C134.849742,35.2183009 135.19174,35.334149 135.221194,35.334149 C135.756282,35.4220337 136.486095,35.4952178 137.407362,35.5524228 C137.497361,35.5524228 137.750996,35.538521 138.16663,35.5091195 C138.999534,35.480517 139.758802,35.3932714 140.442797,35.2469033 C141.395155,35.0152071 142.211695,34.7828718 142.897327,34.5503766 C143.969139,34.1437098 144.980405,33.6788793 145.932762,33.1555655 C147.271299,32.4005554 148.11893,31.8778807 148.475655,31.5862631 C148.565655,31.528419 148.802926,31.3545669 149.189105,31.0637482 C149.576921,30.7740481 149.86001,30.5404344 150.038373,30.3659432 L150.105463,30.3013878 C150.118554,30.2866871 150.141463,30.2647958 150.170917,30.2353943 C150.319825,30.0909437 150.395098,29.9603949 150.395098,29.8432685 C150.395098,29.7274204 150.290371,29.6115723 150.082554,29.495085 C149.843647,29.2919913 149.293832,29.0157136 148.431474,28.6668909 C147.449662,28.2306629 145.85749,27.8385371 143.656595,27.4903536 C143.478233,27.4617511 142.77951,27.3598048 141.55879,27.1854733 C139.564076,26.9230974 138.523355,26.7925485 138.434992,26.7925485 C138.078267,26.7347044 137.318999,26.6182171 136.158825,26.4443651 C135.980462,26.4157626 135.697373,26.3425785 135.309557,26.2267304 C134.358836,25.9649936 133.763203,25.7766006 133.525932,25.6601134 C133.049753,25.3983765 132.603029,25.0356521 132.185759,24.5701825 C131.829034,24.1933965 131.487036,22.9888958 131.161402,22.3204922 C130.683587,21.3331468 130.326862,20.375043 130.08959,19.4442635 C129.970137,18.8929863 129.970137,18.3110293 130.08959,17.7012688 C130.236862,17.0627461 130.505224,16.5100308 130.89304,16.04536 C131.010857,15.8708688 131.212129,15.5952302 131.495218,15.2171659 C131.776671,14.8402202 132.036851,15.1938365 132.275758,14.9175588 C132.514666,14.6419202 132.751937,14.3875337 132.989208,14.1551984 C134.180473,12.9940009 134.864469,12.3394991 135.042832,12.1937702 C135.577919,11.7577019 136.410823,11.0899375 137.543179,10.1896779 C137.602088,10.1610754 138.286084,9.7529705 139.595166,8.96935795 C139.742438,8.88211235 139.90771,8.8022171 140.086072,8.72903306 C140.264435,8.65712734 140.457524,8.56988174 140.665341,8.46793541 C140.873158,8.36614887 141.03843,8.28689279 141.157884,8.22824968 L143.031508,7.5745468 C143.478233,7.42929725 144.294773,7.25496583 145.486038,7.05187212 C146.438396,6.90662257 147.420207,7.06641306 148.431474,7.53124358 C149.413286,7.96667265 150.229826,8.69371936 150.886004,9.70966727 C151.926724,11.2783305 152.61072,12.8768745 152.939627,14.5033818 C153.147444,15.5493704 152.818537,16.4648101 151.956179,17.2490618 C151.569999,17.6272858 151.169093,17.9462277 150.751823,18.2078047 C150.454006,18.3816567 150.110372,18.5281846 149.725829,18.6440327 C149.486922,18.7311185 149.293832,18.6585736 149.144924,18.4255991 C148.937107,18.0480142 148.907653,17.6852898 149.056561,17.3363074 C149.591648,16.1452291 149.9631,15.2444901 150.170917,14.6339307 C150.34928,14.1404977 150.468734,13.6905276 150.529279,13.2830619 C150.558733,13.0520049 150.468734,12.8768745 150.260917,12.7603872 C149.457467,12.3249582 148.698199,12.1218644 147.984749,12.1504669 C146.705121,12.2091101 145.366584,12.4986504 143.969139,13.0226034 C142.68951,13.5160364 141.810789,13.9088015 141.33461,14.1985016 C141.305155,14.2277433 141.059702,14.372833 140.598251,14.6339307 C140.138436,14.8961469 139.801347,15.1292812 139.595166,15.3315759 C139.444622,15.448223 139.23026,15.6080135 138.94717,15.8109474 C138.664081,16.0146803 138.479173,16.1452291 138.389174,16.203233 C137.229,17.0753695 136.23246,17.9615675 135.399557,18.8616673 C135.221194,19.0361586 134.967559,19.3124363 134.641925,19.6892223 C134.313018,20.0674464 134.105201,20.3151216 134.016838,20.4309697 C133.956293,20.4595722 133.90393,20.5175762 133.859748,20.604662 C133.815567,20.6919076 133.777931,20.7505507 133.748476,20.7791532 C133.629022,20.9536444 133.576659,21.0554309 133.593023,21.0840334 C133.60775,21.1134349 133.717385,21.1567381 133.926839,21.2145823 C134.403017,21.3310695 134.93156,21.4403662 135.510829,21.5415136 C136.091734,21.6440991 136.574458,21.7092936 136.962274,21.7372569 C137.348453,21.7664986 137.898268,21.8184305 138.613354,21.8903362 C139.326804,21.9628811 139.832438,22.0135347 140.130254,22.0421372 C141.112066,22.1300219 141.871334,22.2033658 142.406421,22.2612099 C143.239325,22.3192139 144.145865,22.4502421 145.129313,22.6526966 C146.080034,22.8271878 146.973483,23.0601624 147.806387,23.3505017 C148.490383,23.5834762 149.02547,23.8158116 149.413286,24.0475078 C150.126736,24.4829369 150.691278,24.9337058 151.108548,25.3983765 C151.733635,26.1541855 152.150905,27.1854733 152.358722,28.4923997 C152.476539,29.1029592 152.537084,30.0183989 152.537084,31.2380796 C152.566538,32.1389784 152.373449,33.0251764 151.956179,33.8966737 C151.718907,34.3613445 151.435818,34.7828718 151.108548,35.1602969 C150.632369,35.6836107 149.933646,36.293531 149.010743,36.9905371 C148.475655,37.3687612 147.747478,37.7901287 146.824575,38.2543201 C146.705121,38.3128034 146.629849,38.3561066 146.600395,38.3847091 C146.392578,38.531237 145.649673,38.9073838 144.370045,39.5179432 C144.162228,39.6051888 143.923321,39.6989859 143.656595,39.8009322 C143.388233,39.9027187 143.105144,40.0046651 142.808964,40.1064516 C142.511148,40.2083979 142.265695,40.2948446 142.070969,40.3681884 C141.877879,40.4400941 141.59479,40.5132782 141.223338,40.5858231 C140.850249,40.6577288 140.635887,40.6951198 140.576978,40.6951198 C140.071345,40.8395704 139.580439,40.9127544 139.10426,40.9127544 C139.014261,40.9127544 138.858807,40.9274551 138.634627,40.9566968 C138.412083,40.9852993 138.225539,41 138.078267,41 C137.927722,41 137.764087,40.9707583 137.585725,40.9127544 C137.55627,40.8835127 137.497361,40.8835127 137.407362,40.9127544 C136.872275,40.9707583 136.098279,40.8395704 135.087013,40.5206285 C134.373563,40.2882932 133.64375,39.8667659 132.900845,39.2570054 C132.454121,38.8787813 132.053214,38.2110169 131.696489,37.2522739 C131.218674,36.0031917 130.99613,33.9711361 131.025584,32.5184808 C131.055039,32.2281415 131.161402,31.7201675 131.338128,30.9931208 C131.398673,30.7607855 131.590126,31.150834 131.919033,30.8026506 C132.514666,30.1348861 132.884482,29.7560229 133.035026,29.6695762 C133.182298,29.5823306 133.398297,29.4225401 133.681386,29.1902048 C133.962838,28.9577096 134.195201,28.7979191 134.373563,28.7100344 C135.087013,28.2460028 135.697373,27.9411225 136.203006,27.7952338 C136.530277,27.708148 136.872275,27.7666313 137.229,27.969725 C137.824632,28.3179085 138.374447,28.928468 138.881716,29.7999653 C138.940625,29.9464931 138.925898,30.1348861 138.835898,30.3659432 C138.389174,31.4125708 137.958813,32.1682201 137.543179,32.6328908 C137.273181,32.9524718 136.991728,33.1702662 136.693912,33.2861143 C136.276642,33.4898472 135.592646,33.9259154 134.641925,34.5936798"/>
      <path id="Fill-45" d="M165.921264,40.8590361 C165.381863,40.9765772 164.931537,41.0203511 164.571936,40.9913306 C163.521176,40.9913306 162.607328,40.8880566 161.827093,40.6819949 C161.676984,40.6523259 161.526875,40.5934743 161.378416,40.5049537 C161.196966,40.4164331 161.093045,40.3421795 161.063353,40.28349 C161.032012,40.2246384 161.046858,40.0915333 161.107891,39.8862822 C161.287691,39.0897589 161.378416,38.3973202 161.378416,37.8076693 C161.408108,37.6907767 161.444398,37.5205447 161.490585,37.298919 C161.535123,37.0781038 161.556567,36.953105 161.556567,36.923436 C161.797401,35.1548073 161.947509,34.1090968 162.006893,33.7835485 C162.067926,33.6369869 162.142156,33.3639674 162.232881,32.966111 C162.321956,32.5682547 162.38134,32.2521097 162.412681,32.0157305 C162.711249,30.5120151 162.863007,29.6574508 162.863007,29.4507406 C162.892699,29.2453274 162.928989,29.0089482 162.975176,28.7427379 C163.019714,28.4779867 163.07085,28.2124249 163.131883,27.9476737 C163.191267,27.682274 163.237454,27.4471918 163.267146,27.2404816 C163.296838,27.0337714 163.357871,26.6946045 163.446946,26.2231432 C163.537671,25.7521681 163.597055,25.3833323 163.626747,25.1172841 C163.656438,24.8822019 163.730668,24.4984505 163.851085,23.967489 C163.910468,23.7620758 163.971502,23.4378245 164.032535,22.9953836 C164.091918,22.5529427 164.136456,22.2293399 164.166148,22.0219812 C164.286565,21.5214993 164.451519,20.7115196 164.661011,19.590745 C164.781428,19.0017425 164.969476,18.1539875 165.223506,17.0481284 C165.477536,15.9429179 165.621047,15.3315421 165.650739,15.2133525 C165.680431,15.1248319 165.710122,14.9486013 165.741464,14.682391 C165.771156,14.5351809 165.762908,14.4392025 165.71837,14.3946179 C165.673832,14.3506819 165.584757,14.3291192 165.449494,14.3291192 C165.312582,14.3291192 165.111337,14.3506819 164.842461,14.3946179 C164.571936,14.4392025 164.392136,14.4615758 164.30306,14.4615758 C163.491484,14.5500964 162.787128,14.6533705 162.186693,14.7709116 C161.078199,15.0072908 160.344151,15.184332 159.982901,15.3018731 C159.892176,15.3315421 159.705777,15.3897452 159.420406,15.4789143 C159.135035,15.5674349 158.918944,15.6410399 158.768836,15.6997294 C158.138709,15.9354601 157.478891,16.2597114 156.789381,16.6724833 C156.75804,16.6724833 156.637623,16.7906729 156.428131,17.0265657 C156.218638,17.2324653 156.009146,17.2324653 155.798004,17.0265657 C155.647896,16.9090246 155.484591,16.7023144 155.30479,16.4070836 C154.704356,15.4343297 154.283722,14.3291192 154.044538,13.0916141 C154.014846,13.0030935 154,12.7963833 154,12.472132 C154,12.3249219 154.044538,12.1918168 154.135263,12.0742757 C154.494864,11.6608553 155.078803,11.2487319 155.888729,10.8359599 C156.548548,10.5415398 157.043411,10.349583 157.37332,10.2610624 C157.523429,10.2320419 157.694982,10.1881059 157.891277,10.1287679 C158.085924,10.0699163 158.288818,10.0112268 158.49831,9.95172666 C158.707802,9.89303718 158.887603,9.84845262 159.037711,9.8186215 C159.907022,9.58289081 160.613027,9.43568072 161.152429,9.37682911 C161.300888,9.34780862 161.503782,9.31068185 161.759461,9.26609729 C162.013491,9.22216124 162.247727,9.18503447 162.457219,9.15536547 C162.666711,9.12618286 162.863007,9.11142942 163.042808,9.11142942 C163.222608,9.11142942 163.776855,9.05257781 164.707199,8.93438821 C165.0668,8.90536772 165.576509,8.87569873 166.236327,8.84586761 C166.896145,8.81684712 167.316779,8.80193156 167.49658,8.80193156 C167.824839,8.77291107 168.050827,8.71357308 168.171244,8.62505248 C168.290011,8.53653187 168.44012,8.52226482 168.61992,8.58111643 C168.799721,8.64061654 168.971273,8.67628418 169.137878,8.69119974 C169.301183,8.7061153 169.497478,8.7061153 169.721817,8.69119974 C169.947804,8.67628418 170.119357,8.66963703 170.239774,8.66963703 C170.360191,8.66963703 170.554837,8.66217925 170.825362,8.64661519 C171.094238,8.63251026 171.30538,8.62505248 171.455489,8.62505248 L172.062521,8.62505248 C172.136751,8.62505248 172.204382,8.61078542 172.265415,8.58111643 C172.384183,8.58111643 172.796569,8.58857421 173.500925,8.60267914 C174.20693,8.6175947 174.617667,8.62505248 174.738084,8.62505248 C175.008609,8.62505248 175.729461,8.64061654 176.898988,8.66963703 C177.61819,8.69930602 178.428117,8.69930602 179.327119,8.66963703 C179.50692,8.66963703 179.643832,7.98595317 179.732907,8 C179.823632,8.01562216 179.90446,8.05955821 179.980339,8.13316326 C180.054569,8.20693043 180.137046,8.33257781 180.226121,8.50880839 C180.466955,9.03912138 180.661601,9.71729297 180.81171,10.5428368 C180.963468,11.2508395 181.021202,11.8993421 180.99316,12.4883446 C180.963468,12.7537442 180.917281,12.9463495 180.856248,13.0638906 C180.796864,13.3286418 180.602218,13.46045 180.272309,13.46045 C180.1222,13.4907674 179.746104,14.1900154 179.147319,14.1744513 C178.546884,14.1601843 178.159241,14.152078 177.977791,14.152078 C177.258589,14.152078 176.762076,14.1230575 176.4932,14.0637195 C176.433817,14.0345369 176.260614,14.0272412 175.975243,14.0419947 C175.691521,14.0569102 175.518319,14.0488039 175.458935,14.0197834 C174.469208,13.9907629 173.703819,13.9907629 173.164418,14.0197834 C172.953276,14.0197834 172.625016,14.0272412 172.17634,14.0419947 C171.724365,14.0569102 171.394456,14.0637195 171.184963,14.0637195 C171.005163,14.0637195 170.916087,14.152078 170.916087,14.3291192 L170.916087,14.8600807 C170.916087,15.1248319 170.794021,15.9064396 170.554837,17.2027963 C170.375037,18.1465297 170.285961,18.6335552 170.285961,18.6625756 C170.195236,19.3409094 170.045127,20.194663 169.835635,21.226917 C169.804294,21.3741271 169.504077,23.1278403 168.934983,26.4885428 C168.8756,26.8418146 168.799721,27.3802339 168.710645,28.1023415 C168.61992,28.8252598 168.545691,29.377784 168.484658,29.7600763 C168.425274,30.0553071 168.342797,30.5559511 168.237226,31.2637917 C168.133304,31.9711459 168.050827,32.5168608 167.991444,32.8999637 C167.871027,33.4302767 167.720918,34.1530329 167.539468,35.0662867 C167.480084,35.390538 167.405855,35.8553522 167.316779,36.4586217 C167.226054,37.0638368 167.181517,37.4245664 167.181517,37.542756 C167.0611,38.1912585 166.985221,38.7358386 166.955529,39.1782795 C166.955529,39.2958206 166.925837,39.4585947 166.866454,39.6646564 C166.80542,39.8707181 166.760883,40.0185767 166.731191,40.1070973 C166.670158,40.5192207 166.399632,40.7705155 165.921264,40.8590361"/>
      <path id="Fill-46" d="M187.151186,35.1038472 C187.237552,35.3095464 187.31752,35.5812305 187.391091,35.9185771 C187.463063,36.2554396 187.551029,36.5713289 187.651789,36.8644703 C187.754149,37.1574504 187.891695,37.4210679 188.067626,37.6562909 C188.764952,36.8355918 189.259158,36.2191398 189.550244,35.8083869 C189.694187,35.5731639 189.833333,35.3169677 189.964481,35.0380235 C190.09563,34.7597247 190.204387,34.5251471 190.290753,34.3334839 C190.378719,34.1432727 190.487476,33.8575526 190.618625,33.4758396 C190.748174,33.0952559 190.844136,32.8311544 190.903313,32.6838577 C191.221588,31.8039495 191.469491,31.0121289 191.643822,30.3082346 C192.050063,28.6358605 192.269177,27.7122312 192.297965,27.5360559 C192.529874,26.215871 192.878538,24.7053135 193.345554,23.0038995 C193.635041,21.8316566 193.897338,20.7015214 194.129247,19.6159141 C194.217212,19.3229341 194.317973,18.8979839 194.434727,18.3400956 C194.549881,17.7828527 194.637847,17.4016237 194.697024,17.1959246 C194.754601,16.9619922 194.840967,16.6172244 194.959321,16.162105 C195.074476,15.707631 195.176835,15.2896181 195.263202,14.9083891 C195.351167,14.5273214 195.408744,14.1749709 195.437533,13.8523057 C195.583076,12.9428736 195.656647,12.2389793 195.656647,11.7394935 C195.656647,11.1238481 195.728619,10.4791629 195.874162,9.80350182 C195.933338,9.5695695 195.997313,9.38613429 196.070884,9.25432553 C196.142856,9.1226781 196.25961,9.02716918 196.419548,8.9679601 C196.579485,8.90955768 196.776208,8.89536041 197.008117,8.92423895 C198.5787,9.04120512 199.843804,9.70137827 200.803427,10.9039517 C200.977758,11.1393361 201.036935,11.388595 200.977758,11.6515672 C200.774638,12.2975431 200.672278,13.2076205 200.672278,14.3800247 C200.64349,15.1436121 200.469158,16.2427714 200.149284,17.6799225 C199.82781,18.941705 199.626289,19.8075773 199.538323,20.2754419 C199.132083,22.123346 198.898575,23.2095986 198.840997,23.5322639 C198.724243,23.9718953 198.623483,24.4270147 198.535517,24.8955247 C198.505129,25.0428214 198.439555,25.2699777 198.340394,25.5778004 C198.236434,25.8857844 198.17246,26.1135861 198.143671,26.2602374 C198.084494,26.5532175 197.996529,26.9934943 197.881374,27.5804224 C197.76462,28.1671892 197.676654,28.591494 197.619077,28.8555956 C197.327991,30.2061111 197.022511,31.291073 196.704236,32.1125788 C196.645059,32.3471565 196.550696,32.6617551 196.419548,33.0583107 C196.288399,33.454221 196.194036,33.7110626 196.136459,33.8286741 C195.728619,35.1186898 195.29199,36.1015283 194.828172,36.7757374 C194.391544,37.4512371 193.969309,37.9937988 193.561469,38.403745 C192.835354,39.1371632 192.00688,39.6211611 191.076045,39.8557387 C190.290753,40.031914 189.185587,40.0467566 187.760546,39.9001052 C187.151186,39.8705813 186.306717,39.6944061 185.231939,39.3725475 C184.883276,39.2541293 184.403464,38.9764759 183.792504,38.5355538 C183.122367,38.0670438 182.613767,37.1871356 182.266703,35.8964745 C181.974018,34.8987935 181.799686,34.239427 181.742109,33.9161164 C181.538988,33.0071683 181.377452,32.0682124 181.262297,31.1002165 C181.20312,30.7485114 181.159937,30.2424109 181.131149,29.5822378 C181.10236,28.9222259 181.073571,28.4462947 181.044782,28.1518626 C181.014394,27.9179303 181.014394,27.5071774 181.044782,26.9196039 C181.044782,26.7434287 181.036786,26.4948151 181.022391,26.1721498 C181.006397,25.8494845 181,25.6155522 181,25.4682555 C181.028789,25.3512894 181.044782,24.9547337 181.044782,24.2798793 C181.044782,23.6063156 181.057577,23.0919871 181.086366,22.739798 C181.115155,22.5058656 181.145543,22.1978816 181.174332,21.8161686 C181.20312,21.4349396 181.231909,21.0833958 181.262297,20.7600852 C181.291086,20.4380652 181.319874,20.1295972 181.348663,19.8364558 C181.377452,19.6596353 181.399843,19.4842667 181.415837,19.3080915 C181.428632,19.1319162 181.443026,18.9276691 181.45902,18.6922848 C181.471815,18.4570618 181.479812,18.2815319 181.479812,18.1639204 C181.5086,18.0174304 181.545386,17.6733078 181.588569,17.1301009 C181.633351,16.5875392 181.668538,16.1695263 181.698926,15.8757396 C181.698926,15.7882973 181.742109,15.1436121 181.830074,13.9403933 C181.91644,12.6792561 182.002806,11.8579116 182.090772,11.4760373 C182.353069,10.1860215 182.599372,9.26174683 182.832881,8.7045039 L182.919247,8.48396219 C183.036001,8.22050599 183.144758,8.06594933 183.247118,8.02222818 C183.349478,7.97786171 183.530207,8 183.792504,8.0880519 C184.518619,8.29375101 185.215945,8.63125889 185.886082,9.09976886 C186.14678,9.33563718 186.321111,9.62813325 186.409077,9.98032239 C186.497042,10.3029877 186.583408,10.9336369 186.671374,11.8719476 C186.700163,12.1073319 186.736948,12.4958209 186.780131,13.0382212 C186.823314,13.5807828 186.8601,13.998957 186.888889,14.2919371 C186.916078,14.4976362 186.91128,14.8056202 186.868097,15.2162118 C186.823314,15.6269647 186.800923,15.8912275 186.800923,16.0081937 C186.772134,16.2132475 186.714557,16.9324684 186.628191,18.1639204 C186.628191,18.2231295 186.6058,18.567252 186.561017,19.1979013 C186.517834,19.8290345 186.481049,20.3049658 186.45226,20.6282764 C186.423471,21.8605351 186.394683,22.5495868 186.365894,22.6960768 C186.337105,22.9312998 186.292323,23.9281742 186.234745,25.6881519 C186.204357,25.9819386 186.19796,26.2971826 186.212354,26.6338838 C186.226748,26.9713917 186.241143,27.3235808 186.257137,27.6899673 C186.271531,28.0576443 186.277928,28.372243 186.277928,28.6358605 C186.277928,28.8118744 186.284326,29.0035376 186.30032,29.2077847 C186.314714,29.4134838 186.329108,29.6038563 186.343503,29.7798702 C186.357897,29.9560455 186.380288,30.1543233 186.409077,30.3742197 C186.437866,30.5939547 186.45226,30.7775513 186.45226,30.9240413 C186.481049,31.6869833 186.612197,32.5675369 186.845705,33.5637659 C187.020037,34.5028832 187.120798,35.0157596 187.151186,35.1038472"/>
      <path id="Fill-47" d="M213.772097,15.8171994 C213.772097,15.0145356 213.903849,14.196826 214.165745,13.3640706 C213.990612,13.3941623 213.858861,13.4533645 213.772097,13.5426584 C213.624279,13.7511743 213.339888,14.0632123 212.917319,14.4789358 C212.493144,14.8959677 212.178225,15.2374433 211.974171,15.5051614 C211.331481,16.3379168 210.806081,17.1106524 210.397973,17.8240222 C209.755283,18.9545875 209.345568,19.7135855 209.170434,20.0987267 C209.083671,20.337825 208.87801,20.7759538 208.558272,21.4152392 C208.23532,22.054361 208.002345,22.5525097 207.856133,22.9088675 C207.827212,23.0280896 207.761336,23.1916315 207.658505,23.4001474 C207.555675,23.6086634 207.489799,23.7272313 207.462485,23.7565053 C207.314666,24.0543151 207.170061,24.3807448 207.023849,24.7377568 C206.877637,25.0941146 206.723391,25.4818725 206.562718,25.897596 C206.402046,26.3139738 206.263867,26.6410576 206.146576,26.8781934 C205.738468,27.860099 205.431583,28.6627628 205.227529,29.2876564 C204.875656,30.4182217 204.671602,31.2495053 204.61376,31.7851051 C204.61376,31.9636928 204.570378,32.2464568 204.482008,32.6327428 C204.393638,33.0191924 204.350257,33.3170022 204.350257,33.5240463 C204.350257,33.702634 204.335796,33.9860522 204.306875,34.3718476 C204.276347,34.7587877 204.263494,35.0341923 204.263494,35.1969165 C204.263494,35.3612762 204.276347,35.6365172 204.306875,36.022149 C204.335796,36.1413711 204.364717,36.34171 204.393638,36.6246375 C204.422559,36.9074014 204.453087,37.1376685 204.482008,37.3156021 C204.570378,37.761908 204.708557,38.0446719 204.89815,38.1632398 C205.087744,38.2824619 205.402662,38.2968536 205.839692,38.2075597 C206.686436,38.0003521 207.534787,37.5833202 208.381532,36.9590807 C208.645035,36.7806565 209.083671,36.4391809 209.695834,35.9336729 C209.843653,35.815105 210.163391,35.5315233 210.659869,35.0852174 C210.806081,34.9673037 210.968361,34.8263305 211.141887,34.6613168 C211.318627,34.4985925 211.477693,34.3574559 211.623905,34.2382338 C211.770117,34.1196659 211.932396,33.9860522 212.107529,33.8369019 C212.282662,33.6882423 212.427268,33.554138 212.544559,33.4347524 L213.683727,32.2757308 C214.180206,31.7700592 214.544932,31.3986555 214.781121,31.1608656 C214.954648,30.9824413 215.187623,30.7220826 215.480047,30.3799529 C215.772471,30.0386409 215.978132,29.8075562 216.093816,29.6883341 C216.182186,29.5704204 216.342859,29.3175846 216.575834,28.9306444 C216.810416,28.5142667 217.175143,28.3064049 217.671621,28.3064049 C218.254862,28.3064049 218.870238,28.380653 219.512929,28.5284949 C219.716983,28.5885147 219.892116,28.7514025 220.038328,29.0199383 C220.476964,29.7632363 220.783849,30.4324499 220.958982,31.0265976 C221.134115,31.591635 221.045745,32.1421171 220.695479,32.6770627 C220.374134,33.1526426 219.731444,33.9118041 218.767408,34.9516037 C217.74553,36.0522408 216.839337,36.9448525 216.050435,37.6282942 C214.385867,39.0851256 213.465213,39.872907 213.29008,39.9921291 C212.297123,40.7648646 211.49376,41.2855821 210.879991,41.5533002 C209.535161,42.1175198 208.23532,42.147448 206.97886,41.6419399 C205.023475,40.8399304 203.26893,39.4858033 201.721653,37.5833202 C201.196254,36.8998785 200.786539,36.0821689 200.494115,35.1301914 C200.290061,34.5059519 200.158309,33.9417323 200.09886,33.4347524 C199.983176,32.6327428 199.968715,31.9636928 200.057085,31.4280931 C200.086006,31.2202313 200.106894,30.9824413 200.121354,30.7145597 C200.135815,30.4474957 200.158309,30.187137 200.18723,29.9343012 C200.216151,29.6814654 200.245072,29.4511984 200.2756,29.2426824 C200.566417,27.6672831 200.932751,26.2397257 201.371387,24.9606644 C201.662204,24.098635 202.028538,23.1916315 202.465567,22.2403081 C203.284998,20.4271189 203.738094,19.4008934 203.824857,19.1624493 C204.232966,18.359622 204.510929,17.76482 204.657141,17.3783705 C204.686063,17.2298744 204.766399,17.0437637 204.89815,16.8210196 C205.029902,16.598112 205.110238,16.442093 205.139159,16.352145 C205.489425,15.6095011 205.810771,14.9852616 206.104801,14.4789358 C206.949939,13.1413265 207.489799,12.3386628 207.724381,12.0707811 C207.812751,11.9522132 207.913975,11.8261224 208.031266,11.6912003 C208.148557,11.5577501 208.264241,11.4166134 208.381532,11.2674632 C208.498823,11.1194578 208.600047,10.9860076 208.688417,10.8667855 C209.681373,9.79624013 210.544185,9.00911288 211.273639,8.50278711 C212.178225,7.90863932 212.851443,7.56585547 213.29008,7.47656158 C213.405764,7.44728758 213.566436,7.37238538 213.772097,7.25381749 C213.976151,7.1352496 214.136824,7.0603474 214.254115,7.03025569 C215.187623,6.73391773 215.889762,6.57037582 216.357319,6.5402841 C216.444082,6.5402841 216.538879,6.54715286 216.64171,6.56219872 C216.742933,6.57708104 216.845764,6.60651858 216.948594,6.65149261 C217.049818,6.69564892 217.146222,6.71821771 217.234592,6.71821771 C217.379197,6.74814588 217.496488,6.70382602 217.584858,6.58460396 C217.817833,6.22824613 218.001,6.03543021 218.131145,6.00550203 C218.262896,5.97606449 218.503905,6.06470421 218.854171,6.27256599 C219.906577,6.89680548 220.841691,7.74378907 221.659515,8.81498863 C221.746278,8.93355652 221.834648,9.08205258 221.923018,9.26064035 C222.038702,9.49908447 222.024241,9.73687442 221.878029,9.97466436 C221.791266,10.1239781 221.600066,10.4129567 221.307642,10.8442167 C221.016824,11.2756403 220.79831,11.6100835 220.650491,11.848037 C220.300225,12.472113 219.863195,13.2755944 219.336189,14.2561918 C218.89916,15.0894378 218.606735,15.8322452 218.460523,16.4864129 C218.460523,16.516341 218.402681,16.7399028 218.28539,17.1556264 C218.050808,17.9582901 217.935124,18.9694698 217.935124,20.1886748 C217.935124,20.4563929 217.906203,20.649863 217.846754,20.7684309 C217.700542,21.0955147 217.467567,21.2140826 217.146222,21.1249523 C216.91164,21.0655866 216.707585,20.9620645 216.532452,20.8127508 C215.275993,19.920139 214.371406,18.7017517 213.815479,17.1556264 C213.757637,16.9770386 213.74157,16.5313869 213.772097,15.8171994"/>
      <path id="Fill-48" d="M223.00521,40.2897478 C223.062687,39.9612476 223.113777,39.5220999 223.156884,38.9701737 C223.201587,38.4189032 223.236712,38.0541762 223.26545,37.875337 C223.468213,36.0871092 223.571989,35.1330817 223.571989,35.0134185 C223.600727,34.6562319 223.643834,34.0525062 223.701311,33.2035529 C223.760383,32.35378 223.789121,31.7131718 223.789121,31.2815645 C223.789121,30.8497933 223.876932,30.0228056 224.049361,28.8001095 C224.282458,27.1008915 224.499591,25.6111661 224.702354,24.3291302 C224.818903,23.6440991 225.021666,22.5259855 225.31224,20.9762645 C225.805577,18.2941687 226.067412,16.8631274 226.09615,16.6842883 C226.153627,16.5059409 226.19833,16.3044804 226.227068,16.0812183 C226.255806,15.8577923 226.292527,15.6269898 226.335634,15.3878272 C226.378742,15.1494843 226.415462,14.9411391 226.444201,14.7622999 C226.618226,13.9871116 226.937538,12.5718069 227.402136,10.5152383 C227.461209,10.2468976 227.547423,9.88905536 227.663972,9.44236723 C227.751783,9.1732069 227.837997,8.59259429 227.925808,7.69856234 C227.95295,7.2812163 228.157309,7.0579542 228.534097,7.0277925 C228.765599,7.0277925 228.969958,7.04287335 229.143983,7.07221543 C230.218468,7.31137799 231.190773,7.77363873 232.060898,8.45883374 C232.148709,8.51817359 232.306769,8.68209584 232.539866,8.94978087 C232.656415,9.09944188 232.685153,9.29336191 232.627677,9.53170486 C232.597342,9.68136587 232.539866,10.0385524 232.453652,10.6047399 C232.365841,11.1709273 232.293996,11.6033542 232.23652,11.901201 C232.177447,12.1395439 232.068881,12.5937725 231.909225,13.2650341 C231.749569,13.9351482 231.641003,14.4493723 231.583527,14.8067228 C231.554789,15.0457215 231.452609,15.5517495 231.278584,16.3271017 C231.104559,17.10229 230.98801,17.6978195 230.928937,18.1151656 C230.928937,18.2346649 230.799616,18.9798554 230.53778,20.3505733 C230.509042,20.4694169 230.521815,20.5446572 230.580887,20.5739993 C230.668698,20.6341588 230.777264,20.595801 230.908182,20.4626961 C231.037503,20.3281159 231.176404,20.186651 231.321691,20.0378096 C231.466978,19.8889682 231.626634,19.7317668 231.800659,19.5678446 C231.974684,19.4047419 232.119971,19.263277 232.23652,19.143122 C232.729857,18.6369301 233.497802,17.9068204 234.543549,16.952629 C234.717574,16.8037876 235.008148,16.5428234 235.415271,16.1705559 C235.820797,15.7984524 236.12574,15.5217517 236.328503,15.3435682 C236.561601,15.135223 236.916037,14.8140993 237.396602,14.3818364 C237.87557,13.9508848 238.230006,13.6297611 238.461507,13.4207602 C240.696691,11.3348496 241.945201,10.1573961 242.207037,9.88905536 C243.136235,8.90552186 243.672679,8.35425134 243.817966,8.23475202 C244.049467,8.02706253 244.659353,7.35645661 245.647623,6.2232621 C245.79291,6.0744207 246.024411,6 246.343723,6 C246.517748,6 246.706143,6.0744207 246.910502,6.2232621 C247.780627,6.8789511 248.43362,7.69856234 248.869481,8.68209584 C249.043506,9.06944411 249.043506,9.48662624 248.869481,9.93413398 C248.752932,10.201819 248.636383,10.395739 248.519835,10.5152383 C247.561899,11.5882734 246.894537,12.3028105 246.517748,12.6613084 C246.4012,12.7808078 246.204823,12.9960377 245.930214,13.309457 C245.65401,13.6223846 245.428895,13.8531871 245.25487,14.0020285 C245.138321,14.1215278 244.935558,14.3223326 244.644984,14.6059181 C244.356006,14.8893396 244.122909,15.1050613 243.948884,15.2540666 C242.642898,16.4765988 241.728069,17.3262078 241.205994,17.8015823 C240.393345,18.5474286 239.622206,19.2039372 238.898964,19.7686493 C238.839892,19.8294645 238.782416,19.8965087 238.723343,19.9702737 C238.66427,20.0446944 238.600408,20.1204265 238.528563,20.1941915 C238.455121,20.2694318 238.389662,20.3212312 238.332186,20.3505733 C237.257701,21.2747669 236.037929,22.4222227 234.674467,23.7929405 C233.513768,24.9854749 232.744226,25.8195113 232.365841,26.2961972 C232.191816,26.5045424 232.191816,26.6842012 232.365841,26.8330426 C232.568604,26.9827036 232.867161,27.2203908 233.259915,27.5482353 C233.651072,27.8767355 233.948032,28.1150785 234.152392,28.2632642 C234.353558,28.4122695 234.680853,28.6730698 235.131083,29.0459929 C235.581313,29.418916 235.922977,29.6934858 236.154478,29.8731446 C236.299765,29.9926439 236.633446,30.2604929 237.155521,30.677675 C238.346555,31.5710512 239.361967,32.2575576 240.204951,32.7335878 C240.899454,33.1215918 241.625889,33.4945149 242.381062,33.8517015 C242.671636,33.9712008 243.113883,34.1569247 243.7094,34.4110042 C244.304916,34.664428 244.747164,34.8652328 245.037737,35.0134185 C245.385787,35.1630795 245.79291,35.2976596 246.255913,35.4165033 C246.431534,35.4764988 246.48901,35.5953425 246.431534,35.7743455 C246.343723,36.0126885 246.255913,36.1916916 246.169698,36.3105352 C245.414526,37.6225689 244.45659,38.7393712 243.295891,39.6634009 C243.267152,39.6634009 243.164973,39.7229047 242.990948,39.842404 C242.729112,40.0205875 242.483242,40.0656661 242.25174,39.9761646 C242.221406,39.9461668 242.047381,39.8792865 241.728069,39.7753598 C241.408757,39.6709413 241.162886,39.5738994 240.987265,39.4843978 C240.204951,39.1272112 239.361967,38.7098652 238.461507,38.2325236 C238.289079,38.1130243 238.004891,37.9415616 237.613734,37.7189552 C237.222577,37.4955292 236.92402,37.3240665 236.721257,37.2045672 C236.111371,36.9067204 235.341829,36.4149537 234.412631,35.7292669 C234.122057,35.5215774 233.708548,35.2006177 233.172104,34.7683547 C232.63566,34.3359278 232.337103,34.0907001 232.27803,34.0307046 C232.076864,33.8816993 231.133297,33.062088 229.448926,31.5710512 C229.420188,31.5417092 229.377081,31.4972862 229.318008,31.4372907 C229.143983,31.3477891 229.057769,31.4079486 229.057769,31.6169495 C228.998696,32.9576695 228.969958,33.7328579 228.969958,33.941203 C228.969958,35.1924216 228.898113,36.340533 228.752826,37.3835703 C228.724088,37.5925711 228.687367,37.9415616 228.64426,38.433984 C228.599556,38.9257508 228.562836,39.3062143 228.534097,39.5738994 C228.505359,39.6032414 228.49099,39.6483201 228.49099,39.7078238 L228.49099,39.8868269 C228.40318,40.1551677 228.243524,40.3341708 228.012022,40.4236723 C227.809259,40.5130099 227.678341,40.5725137 227.620865,40.6025115 C226.227068,40.9892041 224.933855,41.0942782 223.744418,40.915439 C223.600727,40.915439 223.45544,40.8852774 223.310153,40.8259375 C223.077056,40.736436 222.974876,40.5580885 223.00521,40.2897478"/>
      <path id="Fill-49" d="M194.264418,4.31674931 C193.697848,3.87173033 194.092977,2.81575309 194.963242,1.16888116 C195.154275,0.808792924 195.201626,0.76791152 195.469399,0.437239791 C196.117608,-0.361682417 198.596147,0.195270149 198.023046,0.111697094 C197.992024,0.107322331 199.325994,0.236151554 199.796231,0.690523474 C200.060739,0.946975089 200.186462,0.982274899 199.412531,2.81695992 C198.878616,4.08352919 198.666356,4.46066392 198.499814,4.53790111 C196.912765,5.272107 195.239179,5.08172939 194.264418,4.31674931"/>
      <path id="Fill-50" d="M187.265561,4.31674311 C186.69731,3.87173806 187.092473,2.81579387 187.962812,1.16897347 C188.153862,0.808896506 188.201216,0.768016381 188.470646,0.437354999 C189.117277,-0.361391357 191.597661,0.194789534 191.024511,0.11182249 C190.991853,0.107447864 192.325937,0.236273056 192.796214,0.690781605 C193.060744,0.946470949 193.186478,0.981769655 192.412481,2.81700066 C191.87852,4.08353029 191.666243,4.46065322 191.499686,4.53803884 C189.914135,5.2720709 188.240406,5.08169925 187.265561,4.31674311"/>
    </g>
    <g id="Group-39" transform="translate(20 7.5)">
      <path id="Fill-1" fill="#FFF" d="M113.94605,206.671143 C65.0911088,213.160729 30.1541575,191.709257 6.17274945,147.592471 C14.0021288,168.017517 26.9389096,184.541425 45.9940388,195.711296 C67.5979232,208.375109 90.5208558,211.465112 114.07836,207.177259 C114.07836,207.177259 114.576126,207.114958 114.537589,206.794461 C114.52089,206.583793 113.94605,206.671143 113.94605,206.671143"/>
      <path id="Fill-2" fill="#FFF" d="M14.4672671,47.2524558 C28.3295718,26.3469211 47.667946,11.9630861 73.0887652,5.39514243 C98.2089337,-1.09508546 121.697714,2.28137451 143.497943,13.886069 C143.927628,14.1449073 144.44402,14.2361109 144.660468,13.8802885 C144.889761,13.4486771 144.619362,13.1281799 144.178116,12.8764066 C125.900787,2.26403298 99.5840528,-3.57942009 74.5949091,2.39248876 C47.3705709,8.89877361 27.4599262,24.2049211 13.9007772,46.8850723 C13.7729637,47.061699 13.7832401,47.234472 13.9483058,47.4033913 C14.2488923,47.5472618 14.3683562,47.4149523 14.4672671,47.2524558"/>
      <path id="Fill-3" fill="#FFF" d="M188.32965,75.7535802 C188.32965,75.7535802 188.327081,75.7445883 188.206332,75.2590255 C187.970616,74.7214381 187.735542,74.1838507 187.494045,73.6501169 C174.777566,37.6927772 140.488867,11.9296876 100.176876,11.9296876 C88.5497019,11.9296876 77.4260744,14.0793949 67.1733769,17.9915154 C32.0357135,28.631507 3.25776684,58.5835394 0.0438034183,98.6302687 C0.0187545427,98.8280906 -8.40513077e-06,99.004075 -8.40513077e-06,99.1325307 C-8.40513077e-06,99.1325307 -0.0210667466,99.3888 0.166478681,99.4177025 C0.362373733,99.4260522 0.388064888,99.133173 0.388064888,99.133173 C0.634057691,97.7933793 0.905741649,96.4670735 1.1928403,95.1497595 C5.4768403,77.524343 12.1173614,62.6902705 23.0097686,50.9596894 C23.0097686,50.9596894 20.8690532,53.6913013 18.1907503,58.7787922 L18.1868967,58.7768654 C15.1823162,63.9613403 11.1295366,75.5397013 11.1295366,75.5409859 C11.1295366,75.5409859 -10.3835939,135.245302 40.0674106,174.944109 C45.1292103,179.268572 50.6547354,183.067652 56.5720505,186.23216 C55.8250802,185.895606 55.0890286,185.535287 54.3516925,185.177538 C64.4186429,191.076869 77.4742453,196.32493 92.5016438,196.807923 C95.0328648,197.015379 97.5917037,197.126494 100.176876,197.126494 C146.601434,198.840094 169.18974,171.292111 178.110993,155.990267 L178.111635,155.992836 C178.111635,155.992836 178.16366,155.902275 178.254221,155.744274 C178.491864,155.333858 178.721158,154.930507 178.938891,154.540001 C181.395607,150.191773 188.610968,137.168927 190.286673,131.256108 C187.603232,145.335503 182.141293,158.155389 174.114092,169.899651 C174.114092,169.899651 173.925262,170.213083 174.130791,170.351173 C174.346597,170.511742 174.574606,170.195741 174.574606,170.195741 C184.637189,158.114283 191.56802,144.318775 194.257884,128.56239 C194.4936,127.185345 194.698487,125.810868 194.876398,124.437676 L194.822447,124.514107 C198.128898,99.0124246 188.32965,75.7535802 188.32965,75.7535802"/>
      <path id="Fill-4" fill="#64C3D2" d="M225.419969,27.1105907 C226.565153,28.7329871 226.261355,30.817182 224.981935,33.1614999 C225.231139,33.9874705 225.480344,34.8134411 225.728263,35.6387694 L225.728263,35.640054 C225.728263,35.6394117 225.728906,35.6387694 225.728906,35.6387694 C226.625527,36.0395514 227.522148,36.4403334 228.419412,36.8404732 C228.419412,36.8411154 228.419412,36.8411154 228.420054,36.8417577 L228.420054,36.8411154 C230.756664,34.6837007 230.367443,31.312379 233.266048,29.0997283 C234.631533,28.0573097 235.756163,27.1626153 236.67141,26.3642627 C236.887216,21.3352192 233.952002,15.5829697 226.711592,13.9509391 C226.156021,13.8237679 225.597881,13.7107268 225.03974,13.602824 C226.061606,14.7293811 227.014106,15.9548492 227.921646,17.3029925 C231.481797,22.5921589 229.810588,25.2113721 225.419969,27.1105907"/>
      <path id="Fill-5" fill="#4FBECD" d="M137.536311,41.1488798 C140.949381,39.4866621 143.368845,35.5244438 142.69959,30.110033 C135.77454,34.8866609 134.134802,37.2907106 137.536311,41.1488798"/>
      <path id="Fill-6" fill="#4FBECD" d="M217.370931,21.8471154 C220.295226,21.4097235 221.687687,23.4502435 222.627983,25.7618051 C223.807849,25.9005373 224.741081,26.2467256 225.261969,26.8915736 C225.320416,26.9628666 225.368587,27.0380132 225.419969,27.111233 C229.810588,25.2120144 231.481797,22.5928012 227.921646,17.3036348 C227.014748,15.9554915 226.061606,14.7293811 225.03974,13.6034663 C216.358057,11.9322567 207.28651,12.5308606 198.248362,14.8411376 C203.529821,18.9639256 209.153615,23.0764372 217.370931,21.8471154"/>
      <path id="Fill-7" fill="#4FBECD" d="M166.256452,52.6019964 C170.769746,48.5074687 175.679325,44.6345271 180.827833,41.1790669 C181.636462,35.9329331 181.165029,30.6855148 179.275445,25.5440726 C178.925403,24.5922153 178.583068,23.5998945 178.326157,22.6024354 C167.141512,28.4131322 156.528497,36.3414225 147.372811,45.2286351 C153.058906,45.5728966 158.283202,47.269155 163.006521,50.7920546 C164.06885,51.5839844 165.161367,52.1838729 166.256452,52.6019964"/>
      <path id="Fill-8" fill="#2CB4BF" d="M155.534249,63.608087 C158.740505,59.8578207 162.348185,56.1473757 166.256452,52.6019964 C165.161367,52.1838729 164.06885,51.5833421 163.007163,50.7914123 C158.283202,47.269155 153.058906,45.5722543 147.372811,45.2286351 C145.095291,47.4393589 142.9109,49.710457 140.827348,52.0220186 C144.7035,54.135116 147.787081,57.8006015 150.790377,60.3774243 C152.283676,61.6581283 153.877812,62.7326609 155.534249,63.608087"/>
      <path id="Fill-9" fill="#2CB4BF" d="M180.827833,41.1790669 C189.581451,35.3047844 199.017812,30.6354171 208.346913,28.1356678 C212.095252,27.1311436 218.729993,25.3025757 222.627983,25.7618051 C221.687687,23.4502435 220.295226,21.4097235 217.370931,21.8471154 C209.154257,23.0764372 203.530464,18.9639256 198.248362,14.8411376 C191.530125,16.5585913 184.831799,19.2214795 178.326157,22.6024354 C178.58371,23.5998945 178.925403,24.5922153 179.275445,25.5440726 C181.165029,30.6861571 181.637104,35.9335754 180.827833,41.1790669"/>
      <path id="Fill-10" fill="#2CB4BF" d="M225.728906,35.640054 L225.728906,35.6387694 C225.480344,34.8134411 225.231782,33.9874705 224.982578,33.1621421 C220.787212,40.8579274 206.129124,51.3546909 197.968971,57.5263484 C198.929178,57.861618 200.110971,57.7338045 201.357634,56.9688504 C204.443784,55.0741277 206.734151,55.279657 208.012928,58.7813613 C208.370035,59.7582675 208.607678,60.6902141 208.6308,61.5585751 C213.289249,57.9078621 218.397292,53.5570651 222.966464,48.9467874 C222.328681,43.7655238 223.155294,38.717212 225.728906,35.640054"/>
      <path id="Fill-11" fill="#51BECE" d="M228.420054,36.8424 C228.419412,36.8417577 228.419412,36.8417577 228.419412,36.8411154 C227.52279,36.4409757 226.625527,36.0395514 225.729548,35.6387694 C225.729548,35.6394117 225.728906,35.640054 225.728906,35.640054 C223.155294,38.717212 222.328681,43.7655238 222.966464,48.9467874 C224.252306,47.6500264 225.493189,46.3327124 226.670486,45.005122 C226.033988,42.144412 226.683332,39.4314261 228.420054,36.8424"/>
      <path id="Fill-12" fill="#90D1DD" d="M228.420054,36.8417577 L228.420054,36.8424 C226.683332,39.4314261 226.033988,42.144412 226.670486,45.005122 C232.291069,38.6683988 236.425418,32.0959592 236.67141,26.3649049 C235.756163,27.1626153 234.631533,28.057952 233.266048,29.1003706 C230.367443,31.3130213 230.756664,34.6837007 228.420054,36.8417577"/>
      <path id="Fill-13" fill="#43BBC9" d="M70.7463742,210.958804 L70.7438051,210.958804 L70.6988456,211.599156 L70.7007724,211.599798 C69.5093451,222.292457 77.2873421,229.591956 81.5231712,214.263971 L81.5244558,214.263971 C81.5276672,214.253695 81.5662039,214.111109 81.568773,214.104044 C81.58483,214.052661 81.6073097,213.97045 81.6336432,213.867043 C81.835961,212.761038 82.0466285,211.656961 82.264361,210.555453 C78.4691352,209.617726 74.6777631,208.677429 70.9043748,207.688962 C70.8420738,208.777625 70.7874801,209.86693 70.7463742,210.958804"/>
      <path id="Fill-14" fill="#26ABB5" d="M164.368795,171.536434 C161.380913,172.706024 157.717355,174.878211 152.42305,178.02602 C149.127517,179.984328 145.817854,181.93236 142.548013,183.934343 C140.844047,185.672992 138.886381,187.173997 136.678226,188.350652 C135.666637,188.937053 134.601096,189.394998 133.512434,189.75082 C130.599057,191.658388 127.800005,192.893491 124.289951,191.839511 C120.550604,190.716808 116.903745,189.265257 113.290926,192.695669 C112.490646,193.455485 111.40648,193.761209 110.43985,193.664868 C124.988751,207.845743 153.364631,197.174922 161.798395,178.418452 C162.882561,176.045874 163.7278,173.755507 164.368795,171.536434"/>
      <path id="Fill-15" fill="#26ABB5" d="M74.7914465,183.072983 C74.6340882,182.953519 74.3784612,182.901494 74.0669559,182.898925 C72.4702507,191.050086 71.3803034,199.311719 70.9037325,207.688962 C74.6777631,208.677429 78.4691352,209.617726 82.2637187,210.555453 C83.9092372,202.227023 85.986367,194.030902 88.4398723,185.961953 C83.5078129,186.110319 78.6618189,186.001774 74.7914465,183.072983"/>
      <path id="Fill-16" fill="#45BCCA" d="M85.8399274,29.0181589 C91.1573541,28.5441571 96.8318879,22.1496288 101.467857,27.4458603 C101.470426,27.4490717 101.472353,27.4522831 101.475564,27.4554945 C102.873805,26.599979 104.286819,25.7675856 105.713962,24.9602411 C103.642613,24.1689535 102.133258,22.5118741 101.988103,19.5272042 C100.068331,13.9181829 101.979111,10.866716 107.128903,9.44727976 C112.209971,8.04711184 117.827984,9.45948306 118.567247,13.5154741 C118.910224,15.3941397 118.996289,18.1707112 118.115082,20.5683382 C123.00154,21.3332924 121.948203,28.875573 125.167947,36.6940336 C128.517431,41.9632894 133.664011,43.0352528 137.536311,41.1488798 C134.134802,37.2900684 135.77454,34.8860186 142.69959,30.1093907 C142.320646,27.0431514 140.953234,23.5125445 138.207492,19.667221 C122.907125,4.19665007 103.226416,6.09329955 83.710773,17.647254 C82.9310465,19.7192456 82.3337271,21.8573919 81.4839922,23.907546 C79.6978147,28.2204486 81.4371058,29.4105913 85.8399274,29.0181589"/>
      <path id="Fill-17" fill="#219FA8" d="M113.290284,192.695926 C116.903102,189.264872 120.550604,190.717065 124.289309,191.839768 C127.800005,192.893748 130.598414,191.658645 133.511791,189.751077 C127.597688,191.687548 120.871101,190.249486 116.876769,185.398996 C116.506816,184.970596 116.181823,184.535773 115.880594,184.097739 C111.884335,183.176711 107.844401,182.537001 103.778134,182.066853 C103.937419,182.723262 104.118542,183.379671 104.318933,184.03608 C105.832142,188.0439 107.931751,191.219969 110.43985,193.665124 C111.405837,193.760824 112.490004,193.455742 113.290284,192.695926"/>
      <path id="Fill-18" fill="#219FA8" d="M164.368795,171.536434 C168.80373,156.180381 163.270498,144.278954 156.425732,133.001822 C155.249077,135.595986 153.444916,137.983979 150.111488,139.960271 C145.515341,142.68546 149.763373,146.367645 153.191216,148.455051 C158.026291,151.399258 165.943662,153.006882 163.364913,160.406384 C161.231905,166.526659 156.200934,169.851094 149.81604,170.516495 C148.584149,175.553246 146.134498,180.274638 142.548013,183.934343 C145.817854,181.93236 149.127517,179.984328 152.42305,178.02602 C157.717355,174.878211 161.380913,172.706024 164.368795,171.536434"/>
      <path id="Fill-19" fill="#219FA8" d="M141.513944,64.8052948 L141.514586,64.8052948 C143.324528,65.6319076 145.135112,66.457236 146.945054,67.2832066 L146.945696,67.2825643 C148.201993,68.2010231 149.478844,68.9486357 150.773678,69.5607274 C151.964463,67.9389733 153.269574,66.2818939 154.705709,64.5837085 C154.977393,64.2580732 155.256142,63.9330801 155.534249,63.608087 C153.877812,62.7326609 152.284318,61.6581283 150.790377,60.3774243 C147.787724,57.8006015 144.7035,54.1357583 140.827348,52.0220186 C139.620506,53.36117 138.445778,54.7125247 137.310871,56.0754405 C139.641701,58.1275214 141.160048,60.9284996 141.513944,64.8052948"/>
      <path id="Fill-20" fill="#219FA8" d="M74.6662021,179.960692 C74.4600306,180.93824 74.2596396,181.917716 74.0669559,182.899118 C74.3784612,182.901687 74.6340882,182.953711 74.7914465,183.073175 C78.6624612,186.001325 83.5078129,186.110512 88.4405145,185.962146 C88.950484,184.284513 89.4720144,182.611377 90.01474,180.944663 C85.4821781,180.676833 80.9425511,180.452035 76.4189811,180.113554 C75.8858897,180.074375 75.2860012,180.015286 74.6662021,179.960692"/>
      <path id="Fill-21" fill="#219FA8" d="M201.356992,56.9694927 C200.110971,57.7344468 198.929178,57.8622603 197.968971,57.5269907 C196.41016,58.7055724 195.104407,59.7210153 194.090249,60.526433 C192.898822,61.3369889 184.912084,66.7321313 179.256819,70.4958855 C183.37768,70.757293 186.466399,72.9763664 187.721412,76.7452588 C191.650231,73.9365733 195.074862,71.2184492 196.985642,69.9717859 C199.742945,68.1740474 203.960148,65.2182801 208.630158,61.5585751 C208.607036,60.6902141 208.369393,59.7582675 208.012285,58.7820036 C206.733508,55.2802993 204.443784,55.07477 201.356992,56.9694927"/>
      <path id="Fill-22" fill="#249AA3" d="M141.513944,64.8052948 C141.160048,60.9284996 139.641701,58.1275214 137.310871,56.0754405 C135.304392,58.485913 133.418661,60.9291418 131.661386,63.3852162 C133.112294,63.6607538 134.673031,64.1109913 136.274233,64.5760012 C137.881857,65.0422957 139.760522,64.7487742 141.513944,64.8052948"/>
      <path id="Fill-23" fill="#249AA3" d="M14.246837,109.650489 L14.246837,109.654985 C14.2474793,109.653701 14.2481216,109.652416 14.2481216,109.651132 C20.9130493,107.719157 26.3293869,110.838063 30.8401114,114.153506 C31.2396088,114.447028 31.6346103,114.696874 32.0283273,114.924883 C40.2694073,92.000024 53.3173024,70.5202921 70.1606159,52.8666153 C69.3121655,47.8028888 69.2183928,42.7031946 72.3726243,37.4660528 C74.5017787,33.9290231 75.3662861,29.9610243 70.4862513,27.9982201 C70.1638273,27.8684798 69.8529643,27.7734225 69.5472396,27.6957067 C66.3133655,30.3624486 63.1152664,33.2475652 59.9758073,36.3202273 C59.7298145,36.6285211 59.4767566,36.881579 59.2114955,37.0761895 C39.5050955,56.6091742 22.1706313,83.3388936 12.6533431,108.042223 C13.0785318,108.595225 13.606485,109.133455 14.246837,109.650489"/>
      <path id="Fill-24" fill="#249AA3" d="M163.36427,160.406641 C165.943662,153.006882 158.025649,151.399258 153.190573,148.455051 C149.762731,146.367645 145.514699,142.68546 150.110846,139.960271 C153.444916,137.983337 155.248435,135.595986 156.42509,133.001822 C150.659995,123.50316 143.966807,114.44767 141.521009,104.142948 C137.298025,103.547556 132.87722,103.670231 128.595789,105.291985 C125.491013,106.46864 123.77934,107.988272 124.54044,111.446301 C125.297045,114.885062 125.272638,118.684784 125.993917,122.086935 C132.830333,133.112936 143.606488,141.630196 149.23542,153.387753 C151.353013,158.812504 151.20272,164.846072 149.815398,170.516752 C156.200934,169.851351 161.231905,166.526274 163.36427,160.406641"/>
      <path id="Fill-25" fill="#249AA3" d="M6.39240882,129.219442 C6.18431046,130.290121 5.99933415,131.348596 5.83426849,132.397437 C5.83940672,132.389088 5.84390267,132.380096 5.84839862,132.371746 C6.67308468,131.007546 6.74309307,130.010729 6.39240882,129.219442"/>
      <path id="Fill-26" fill="#249AA3" d="M92.2684966,145.234665 C90.415522,150.353628 84.611248,153.126345 80.8070303,157.069295 C79.6695544,160.595792 78.609152,164.142456 77.6354573,167.711599 C77.7356528,168.81953 77.35157,170.219056 76.6688276,171.377727 C75.9436948,174.225591 75.2737979,177.086301 74.6662021,179.960499 C75.2860012,180.015093 75.8858897,180.074183 76.4183388,180.114004 C80.9425511,180.451843 85.4821781,180.677283 90.01474,180.945113 C94.0713733,168.487472 99.0284816,156.344163 104.706869,144.505679 C103.241189,144.419613 101.74789,144.111962 100.218624,143.485097 C97.4137925,142.336703 92.9171982,143.441422 92.2684966,145.234665"/>
      <path id="Fill-27" fill="#249AA3" d="M146.945054,67.2832066 C147.061306,68.2941535 147.183981,69.3038159 147.2906,70.3166897 C147.457592,71.8986225 147.175632,73.6205721 146.939273,75.3309607 C148.049773,73.4593601 149.32277,71.5376618 150.773678,69.5607274 C149.478844,68.9479934 148.201993,68.2003808 146.945696,67.2825643 L146.945054,67.2832066"/>
      <path id="Fill-28" fill="#249AA3" d="M179.256819,70.4952432 C176.372987,72.4143724 174.106384,73.896752 173.690188,74.0907202 C172.751818,74.7053811 171.439,75.3656438 170.134532,76.1145409 C171.422943,76.5814777 172.662542,77.7465715 173.775611,78.7922015 C175.275332,80.2020036 176.309401,81.7935706 176.872037,83.4211052 C180.423197,81.7511802 184.267236,79.2141787 187.721412,76.7446165 C186.467041,72.9763664 183.37768,70.757293 179.256819,70.4952432"/>
      <path id="Fill-29" fill="#249AA3" d="M120.740076,157.246564 C123.657307,150.295822 117.158087,149.681162 112.771322,153.614477 C108.970316,156.760359 106.143647,163.862807 104.319575,168.597687 C102.600194,173.07694 102.681764,177.565827 103.778134,182.066917 C107.844401,182.536423 111.884335,183.176775 115.881237,184.097803 C110.01145,175.572193 116.736752,165.377301 120.740076,157.246564"/>
      <path id="Fill-30" fill="#2DB1BC" d="M14.246837,109.654985 L14.246837,109.650489 C13.606485,109.133455 13.0785318,108.595225 12.6533431,108.042223 C11.7849821,110.294053 10.9821336,112.529825 10.2486511,114.740549 C11.9802349,113.356438 13.4831674,111.793774 14.246837,109.654985"/>
      <path id="Fill-31" fill="#2AAFBA" d="M59.9756146,36.3202273 C59.7206299,36.5700738 59.4662875,36.8237739 59.2113028,37.0761895 C59.4772062,36.881579 59.7302641,36.6285211 59.9756146,36.3202273"/>
      <path id="Fill-32" fill="#2AAFBA" d="M72.371982,37.4654105 C69.2183928,42.7025523 69.3121655,47.8022465 70.1606159,52.8666153 C79.4916432,43.0866351 89.987122,34.4813829 101.475564,27.4554945 C101.472353,27.4522831 101.470426,27.4490717 101.467214,27.4458603 C96.8318879,22.1489865 91.1573541,28.5435148 85.8399274,29.0181589 C81.4364636,29.4105913 79.6971724,28.2198063 81.4839922,23.907546 C82.3330849,21.8573919 82.9310465,19.7192456 83.710773,17.647254 C78.9572672,20.4604354 74.2146801,23.8465295 69.5472396,27.6957067 C69.852322,27.7734225 70.1638273,27.8678375 70.485609,27.9975778 C75.3662861,29.960382 74.5011364,33.9290231 72.371982,37.4654105"/>
      <path id="Fill-33" fill="#4FBECD" d="M118.567247,13.5154741 C117.827984,9.46012534 112.209971,8.04711184 107.128903,9.44727976 C101.979111,10.866716 100.068331,13.9181829 101.988103,19.5272042 C102.133258,22.5118741 103.642613,24.1689535 105.713962,24.9602411 C106.317062,24.619191 106.922089,24.2813523 107.530327,23.9486519 C112.743062,21.1823568 115.989782,20.2349955 118.115082,20.5683382 C118.996289,18.1707112 118.910224,15.3941397 118.567247,13.5154741"/>
      <path id="Fill-34" fill="#18858D" d="M128.595789,105.291985 C132.87722,103.670231 137.298025,103.547556 141.521009,104.142948 C139.515172,95.6905583 140.371972,86.3974255 146.939273,75.3309607 C147.175632,73.6205721 147.45695,71.8986225 147.289957,70.3166897 C147.183339,69.3044582 147.060664,68.2941535 146.944411,67.2832066 C145.13447,66.457236 143.324528,65.6319076 141.513944,64.8052948 L141.513301,64.8052948 C139.75988,64.7487742 137.881214,65.0422957 136.27359,64.5753589 C134.672389,64.1109913 133.111652,63.6607538 131.660744,63.3852162 C128.035722,68.4527964 124.967556,73.5756126 122.593051,78.5866723 C107.358838,77.9880684 94.948084,80.9303478 86.6755322,83.7942693 C81.0761451,85.6485283 83.259251,90.8593367 88.238839,91.2736066 C94.0957799,91.6275022 102.354201,91.3725175 110.152751,93.045654 C90.8625481,114.777159 70.151624,135.550384 46.6559714,152.77823 C46.7368985,153.252874 46.8505819,153.717242 47.0124362,154.164268 C48.3759942,157.937656 48.3631486,161.109294 47.0516152,163.604547 C64.8020834,153.528412 82.5090693,134.395567 93.0520768,125.463395 C88.4366609,135.815003 84.2663442,146.34645 80.8070303,157.068653 C84.6106057,153.125703 90.4148798,150.353628 92.2678543,145.234023 C92.9171982,143.44078 97.4131502,142.336061 100.217982,143.485097 C101.74789,144.111319 103.240546,144.419613 104.706869,144.505036 C109.816197,133.852199 115.50743,123.446639 121.663673,113.287715 C122.789588,116.41497 124.27839,119.32064 125.993917,122.086935 C125.272638,118.684784 125.297045,114.885062 124.54044,111.446301 C123.77934,107.988272 125.491013,106.46864 128.595789,105.291985"/>
      <path id="Fill-35" fill="#18858D" d="M19.9297846,161.849263 C17.8372401,153.505932 8.57493661,146.808891 14.3233324,136.46242 C16.2655837,132.965212 17.7691585,129.654907 21.929841,128.744798 C23.5914164,128.160966 25.5837654,128.199503 27.7032856,128.702407 C28.9499489,124.065154 30.3950763,119.467079 32.0283915,114.924883 C31.6346745,114.696874 31.2390308,114.446386 30.8401756,114.153506 C26.3294512,110.838063 20.9131135,107.718515 14.2481858,109.651132 C14.2481858,109.652416 14.2475435,109.653701 14.2469012,109.654985 C13.4832317,111.793132 11.9802991,113.356438 10.2487153,114.740549 C8.59870093,119.713715 7.2961594,124.567416 6.39247304,129.219442 C6.7431573,130.010729 6.67314891,131.006904 5.84846285,132.371746 C5.84332462,132.380096 5.83947094,132.388446 5.83433271,132.397437 C3.9723663,144.195458 4.18046465,155.009507 9.25703676,162.013044 C14.6727321,168.670907 21.5618152,170.58554 28.6153216,170.035107 C24.5529078,169.414024 21.252879,167.125584 19.9297846,161.849263"/>
      <path id="Fill-36" fill="#18858D" d="M77.6354573,167.711342 C77.3027568,168.93103 76.9816174,170.153286 76.6694699,171.37747 C77.3522123,170.219441 77.7356528,168.819273 77.6354573,167.711342"/>
      <path id="Fill-37" fill="#18858D" d="M170.134532,76.1145409 C166.950113,77.9418243 163.81515,80.2977031 166.300127,83.816749 C168.49094,86.2342867 172.454443,85.4988774 176.872037,83.4211052 C176.309401,81.7935706 175.275332,80.2020036 173.775611,78.7922015 C172.663184,77.7465715 171.422943,76.5814777 170.134532,76.1145409"/>
      <path id="Fill-38" fill="#117981" d="M47.012115,154.164268 C46.850903,153.7166 46.7372197,153.252874 46.6556503,152.77823 C45.8617936,153.360135 45.0737174,153.949105 44.2740802,154.52266 C40.896978,156.830368 36.986142,160.229564 33.1658673,159.744001 C23.5612293,158.016657 24.2600287,145.325226 25.6794649,137.041114 C26.2825648,134.250412 26.9582422,131.469987 27.7032856,128.701765 C25.5837654,128.199503 23.5914164,128.160966 21.929841,128.744798 C17.7691585,129.654907 16.2655837,132.965212 14.3226901,136.461778 C8.57493661,146.808891 17.8372401,153.505932 19.9297846,161.849392 C21.252879,167.125712 24.5529078,169.414152 28.6153216,170.034593 C34.5596125,169.570868 40.8083435,167.148192 47.0519363,163.604097 C48.3634697,161.109486 48.375673,157.937656 47.012115,154.164268"/>
    </g>
  </g>
</svg>
